<?xml version="1.0" standalone="no"?>
<!DOCTYPE svg PUBLIC "-//W3C//DTD SVG 20010904//EN"
 "http://www.w3.org/TR/2001/REC-SVG-20010904/DTD/svg10.dtd">
<svg version="1.0" xmlns="http://www.w3.org/2000/svg"
 width="300.000000pt" height="300.000000pt" viewBox="0 0 300.000000 300.000000"
 preserveAspectRatio="xMidYMid meet">
<metadata>
Created by potrace 1.14, written by Peter Selinger 2001-2017
</metadata>
<g transform="translate(0.000000,300.000000) scale(0.100000,-0.100000)"
fill="#000000" stroke="none">
<path d="M0 2000 c0 -950 1 -1000 18 -991 9 5 35 28 57 50 24 25 48 41 63 41
29 0 53 12 118 62 31 23 58 36 67 32 28 -10 37 103 22 266 -6 66 -4 97 8 138
10 33 13 61 8 74 -8 21 11 115 29 147 4 8 2 35 -5 61 -11 43 -11 52 8 92 14
28 21 64 22 104 1 67 20 108 61 126 13 6 24 17 24 25 0 22 30 75 58 103 13 14
43 50 65 80 22 30 79 92 125 138 95 92 163 130 286 161 74 18 214 71 304 113
50 23 120 25 178 4 33 -11 57 -12 115 -5 71 10 184 19 259 22 74 3 263 -15
295 -29 19 -7 50 -25 71 -39 20 -14 45 -25 56 -25 69 0 224 -118 296 -226 34
-50 71 -92 103 -114 50 -35 78 -76 105 -153 8 -22 31 -68 52 -101 50 -80 68
-120 87 -192 19 -72 19 -126 1 -229 -11 -61 -12 -113 -6 -212 10 -168 7 -252
-13 -303 -3 -8 -8 -28 -12 -45 -7 -36 -69 -166 -102 -214 l-23 -34 23 -31 c74
-99 111 -198 126 -336 21 -181 37 -412 35 -487 -1 -40 2 -73 7 -73 5 0 9 615
9 1500 l0 1500 -1500 0 -1500 0 0 -1000z"/>
<path d="M1398 2812 c-24 -2 -38 -8 -38 -17 0 -9 -17 -16 -47 -20 -27 -4 -72
-20 -101 -36 -29 -16 -83 -36 -120 -45 -79 -18 -152 -44 -152 -54 0 -17 30
-32 43 -22 6 5 23 12 37 14 21 3 28 -5 52 -52 22 -46 73 -171 103 -255 4 -11
9 -15 11 -9 3 6 -13 82 -36 168 -44 174 -44 169 -31 161 10 -5 18 -30 71 -205
28 -91 50 -143 50 -116 0 17 -32 134 -56 203 -26 77 -31 128 -13 139 15 9 27
-12 38 -71 54 -278 70 -347 65 -280 -3 39 -12 95 -19 125 -8 30 -18 96 -24
145 l-9 90 29 28 c16 15 40 27 53 27 48 0 56 -97 15 -166 -23 -37 -24 -93 -5
-168 11 -42 12 -72 5 -133 -14 -115 -17 -123 -39 -123 -10 0 -22 -4 -25 -10
-8 -13 21 -66 40 -73 8 -4 23 -22 32 -42 9 -19 20 -35 25 -35 10 0 9 53 -2 95
-6 24 -8 26 -9 8 0 -13 -6 -23 -12 -23 -8 0 -10 13 -6 38 3 20 9 65 13 99 7
66 18 74 28 21 11 -61 51 -176 61 -177 15 -2 27 211 21 377 -3 78 -3 142 -1
142 8 0 25 -107 31 -193 10 -156 24 -177 20 -32 -2 128 -16 188 -71 318 -4 9
-3 17 1 17 5 0 15 -14 23 -31 17 -40 26 -30 12 14 -7 21 -22 39 -39 47 -15 7
-22 14 -16 17 20 7 79 -25 117 -65 44 -45 57 -101 45 -197 -19 -163 -5 -435
22 -435 3 0 6 89 6 198 0 108 1 235 4 282 3 61 0 92 -9 110 -29 51 -72 97
-121 125 -55 33 -64 49 -22 39 54 -13 88 -42 148 -127 63 -88 78 -134 63 -190
-3 -13 0 -66 7 -118 7 -52 14 -114 14 -139 1 -40 2 -42 11 -20 6 15 8 86 4
185 -7 165 -19 225 -65 302 -25 42 -25 46 -2 34 10 -5 29 -36 44 -68 14 -32
31 -69 37 -83 10 -22 11 -19 6 19 -7 54 -26 92 -67 130 -41 38 -33 48 10 14
63 -49 78 -98 85 -278 5 -126 3 -171 -8 -209 -18 -58 -20 -110 -5 -86 5 8 10
28 10 44 0 16 7 37 16 47 9 10 23 55 31 101 7 46 21 94 30 107 27 42 14 150
-28 233 -19 38 -48 55 -34 21 47 -112 47 -115 37 -210 -16 -142 -27 -136 -27
16 0 133 -1 138 -31 200 -29 58 -30 62 -11 57 13 -3 25 2 33 12 12 16 15 14
43 -13 39 -39 70 -121 78 -207 3 -39 10 -65 16 -61 11 7 -1 169 -15 198 -6 11
-22 32 -36 48 -21 22 -23 30 -13 40 10 10 20 4 48 -28 58 -66 64 -107 39 -238
-7 -37 -9 -64 -4 -59 15 15 39 174 33 214 -4 21 -15 48 -26 62 -24 31 -24 36
1 36 23 0 60 -53 60 -87 0 -19 -28 -167 -45 -238 -6 -21 -4 -27 3 -20 6 6 24
63 38 128 24 103 26 125 17 170 -7 31 -7 56 -2 62 18 19 34 -17 37 -88 3 -62
-1 -86 -27 -160 -17 -48 -29 -87 -27 -87 2 0 25 12 51 26 39 22 44 29 31 36
-9 5 -26 6 -37 3 -23 -7 -21 3 7 35 15 18 34 117 34 176 0 45 16 66 32 43 10
-15 5 -133 -7 -164 -5 -14 1 -10 19 10 21 25 25 40 26 92 0 63 7 77 33 67 38
-14 26 -74 -34 -159 -22 -31 -38 -59 -36 -61 4 -5 70 73 106 124 13 18 26 31
29 28 4 -5 -49 -90 -67 -106 -18 -16 -32 -40 -24 -40 6 0 31 27 58 61 26 33
49 58 52 55 3 -2 -15 -30 -39 -61 -23 -32 -49 -69 -56 -84 -13 -25 -92 -78
-193 -128 -26 -13 -53 -31 -62 -41 -35 -39 -88 -148 -93 -191 l-5 -46 23 42
c82 148 115 186 198 228 19 10 62 43 96 74 45 43 83 66 150 94 50 21 98 47
107 58 21 24 37 24 37 0 0 -20 -66 -71 -94 -71 -30 0 -74 -29 -103 -67 -37
-50 -59 -68 -113 -94 -50 -25 -164 -120 -181 -151 -7 -12 -7 -24 -2 -29 6 -6
32 17 66 55 45 51 67 68 109 82 42 14 67 32 123 91 61 65 132 113 166 113 23
0 5 -19 -33 -35 -25 -11 -76 -53 -123 -100 -48 -49 -92 -85 -109 -89 -53 -13
-115 -67 -170 -150 -29 -45 -59 -92 -66 -106 -11 -22 -7 -20 26 11 22 19 53
44 69 54 60 37 176 127 171 132 -3 3 -16 -3 -29 -13 -134 -104 -187 -140 -187
-126 0 5 43 45 96 88 53 44 143 123 200 177 58 54 112 97 123 97 29 0 79 47
83 78 3 24 6 27 41 25 38 -2 51 13 20 24 -10 4 -29 17 -43 31 -38 37 -121 82
-153 82 -15 0 -35 9 -45 21 -9 11 -33 27 -52 35 -32 14 -220 37 -295 37 -73 0
-299 -24 -317 -34 -14 -8 -25 -7 -41 4 -29 19 -102 33 -149 29z m933 -153 c24
-20 24 -21 4 -36 -32 -24 -87 -45 -96 -36 -6 6 54 93 65 93 2 0 14 -9 27 -21z
m-941 -66 c0 -21 6 -81 14 -133 9 -63 11 -134 7 -210 l-6 -115 -22 90 c-43
175 -53 282 -32 346 6 19 12 40 15 47 8 27 24 10 24 -25z"/>
<path d="M1483 2646 c22 -57 47 -154 48 -185 0 -34 1 -35 11 -11 16 39 3 132
-23 173 -23 36 -46 51 -36 23z"/>
<path d="M1830 2636 c0 -21 11 -46 20 -46 10 0 0 49 -11 56 -5 3 -9 -1 -9 -10z"/>
<path d="M881 2617 c-8 -11 3 -21 52 -46 34 -19 70 -40 80 -49 23 -20 33 -9
11 13 -22 22 -119 95 -126 95 -3 0 -10 -6 -17 -13z"/>
<path d="M771 2522 c-43 -42 -92 -95 -107 -118 -16 -23 -53 -69 -82 -104 -36
-42 -51 -68 -47 -80 4 -13 -4 -23 -28 -38 -45 -26 -76 -100 -58 -139 10 -21 9
-29 -3 -42 -29 -32 -37 -71 -26 -128 8 -43 7 -61 -5 -83 -21 -40 -30 -107 -17
-123 8 -9 7 -24 -3 -52 -11 -31 -12 -78 -8 -205 3 -91 7 -167 9 -169 6 -6 74
49 151 123 78 74 99 109 33 54 -78 -64 -113 -88 -128 -88 -8 0 -12 6 -8 15 3
8 1 15 -5 15 -21 0 4 21 53 46 28 14 71 45 97 69 51 47 89 69 138 79 17 4 37
14 44 22 9 12 6 14 -22 14 -74 0 -159 -41 -159 -76 0 -12 -141 -87 -149 -79
-8 9 25 38 71 61 26 13 48 29 48 34 0 5 -30 -7 -66 -27 -70 -38 -85 -27 -23
16 32 22 22 25 -23 6 -31 -12 -20 10 15 30 l32 20 -29 3 c-22 3 -26 6 -15 13
12 8 12 10 0 18 -8 5 -11 16 -8 24 5 13 21 15 100 10 59 -4 113 -1 145 7 53
12 74 33 25 23 -82 -16 -257 11 -269 41 -3 8 2 30 10 51 9 20 14 41 11 45 -20
32 127 5 215 -40 30 -15 66 -31 80 -35 22 -5 21 -3 -7 15 -18 12 -33 26 -33
30 0 10 -186 70 -215 70 -30 0 -43 17 -36 48 13 58 21 63 81 48 30 -7 64 -17
75 -23 37 -20 165 -62 165 -54 0 10 -58 37 -100 46 -19 4 -55 19 -80 33 -25
14 -62 34 -82 44 -45 22 -48 41 -17 105 31 64 65 57 178 -37 56 -46 108 -76
118 -67 2 2 -14 16 -36 30 -22 15 -61 49 -86 76 -26 28 -57 53 -69 57 -11 4
-24 11 -27 17 -6 8 36 107 46 107 2 0 35 -18 74 -40 39 -22 74 -40 78 -40 17
-1 45 -29 38 -40 -5 -8 -11 -8 -21 1 -8 6 -14 7 -14 2 0 -15 77 -54 94 -47 19
7 21 21 4 27 -7 2 -10 8 -5 12 4 5 18 2 31 -5 40 -21 129 -107 124 -120 -2 -7
-22 -18 -43 -26 -81 -27 -97 -62 -110 -239 -4 -44 -8 -87 -10 -95 -3 -8 10
-42 28 -75 39 -73 87 -104 162 -106 46 -1 48 -2 20 -10 -38 -11 -82 -45 -72
-55 4 -4 13 -2 19 4 7 7 19 12 28 12 8 0 38 20 65 45 28 25 58 45 67 45 25 0
13 -24 -29 -56 -29 -22 -34 -31 -29 -55 4 -24 0 -32 -32 -57 -20 -15 -59 -41
-86 -57 -65 -37 -93 -67 -127 -140 -43 -90 -35 -98 21 -21 28 38 50 71 50 75
0 7 37 29 131 78 71 37 166 112 186 147 7 11 12 31 13 43 0 19 -3 18 -34 -13
-47 -47 -69 -43 -24 4 71 74 88 142 62 247 -12 46 -33 91 -65 139 -27 39 -51
83 -54 97 -15 67 -174 190 -334 259 -90 38 -176 88 -168 96 3 3 33 -9 67 -26
34 -17 64 -29 67 -26 5 5 -72 56 -85 56 -5 0 -17 10 -28 21 -19 22 -19 22 6
14 14 -4 46 -18 72 -31 26 -13 51 -24 55 -24 14 1 -40 40 -92 67 -27 14 -44
28 -38 30 14 5 95 -39 183 -98 30 -20 80 -49 110 -64 30 -15 70 -39 88 -53 25
-19 32 -21 32 -9 0 21 -84 94 -142 123 -38 19 -55 37 -89 96 -24 40 -49 81
-57 91 -13 15 -13 17 1 17 9 0 35 -25 59 -56 33 -45 141 -134 161 -134 3 0
-30 35 -72 78 -42 42 -84 93 -94 112 l-19 35 38 -40 c142 -151 186 -196 189
-193 2 2 -25 46 -60 98 -44 63 -76 100 -99 112 -32 16 -55 38 -41 38 13 0 102
-50 127 -72 26 -23 112 -137 121 -160 2 -7 7 -11 10 -8 11 10 -41 109 -75 142
-41 41 -79 68 -157 113 l-62 34 -78 -77z m7 -103 c23 -17 42 -35 42 -39 0 -10
-97 48 -106 62 -12 19 25 6 64 -23z m308 -464 l28 -14 -28 -11 c-15 -5 -31
-10 -35 -10 -15 0 -86 -84 -100 -117 -14 -34 -8 -103 9 -103 6 0 10 -6 10 -14
0 -23 77 -84 115 -92 68 -12 133 35 142 104 3 22 0 49 -7 61 -6 13 -9 25 -6
29 13 12 37 -26 41 -65 3 -31 -3 -51 -28 -93 -29 -47 -41 -57 -100 -83 -67
-30 -67 -30 -107 -12 -40 18 -62 53 -96 149 -26 73 -11 180 33 228 16 18 79
56 94 58 4 0 19 -7 35 -15z m49 -106 c21 -40 15 -46 -15 -14 -22 23 -25 24
-42 8 -25 -22 -36 -8 -13 17 26 29 52 25 70 -11z"/>
<path d="M1851 2564 c0 -11 3 -14 6 -6 3 7 2 16 -1 19 -3 4 -6 -2 -5 -13z"/>
<path d="M2515 2569 c-4 -5 -18 -14 -31 -19 -14 -6 -24 -18 -24 -29 0 -11 -17
-34 -38 -51 -39 -31 -87 -88 -80 -95 2 -3 25 16 52 41 46 45 78 55 40 13 -18
-20 -18 -20 11 -13 l30 7 -20 -23 c-15 -18 -16 -22 -4 -18 8 3 45 9 80 13 59
6 101 1 152 -20 28 -12 19 9 -13 28 -24 15 -43 16 -110 11 -57 -5 -80 -4 -80
5 0 6 17 12 38 12 56 2 62 3 62 14 0 6 -18 10 -39 10 -22 0 -42 3 -46 7 -12
11 36 30 66 26 36 -6 36 -1 -1 50 -33 45 -35 47 -45 31z"/>
<path d="M1851 2524 c0 -11 3 -14 6 -6 3 7 2 16 -1 19 -3 4 -6 -2 -5 -13z"/>
<path d="M1717 2513 c-4 -3 -7 -11 -7 -17 0 -6 5 -5 12 2 6 6 9 14 7 17 -3 3
-9 2 -12 -2z"/>
<path d="M2485 2363 c-11 -2 -29 -8 -40 -14 -11 -5 -62 -22 -113 -39 -100 -31
-168 -65 -176 -87 -9 -22 27 -15 87 17 31 17 70 30 86 30 16 0 51 9 78 21 81
35 273 38 318 5 33 -24 9 -35 -42 -20 -93 28 -198 12 -286 -43 -51 -32 -41
-41 15 -12 39 21 57 23 188 24 122 0 145 -2 145 -15 0 -12 -10 -14 -47 -12
-78 6 -159 -22 -287 -98 -65 -38 -124 -77 -132 -86 -10 -12 178 80 216 106 37
25 118 44 188 44 71 1 81 -2 98 -23 10 -13 19 -26 19 -30 0 -3 -33 -7 -72 -7
-114 -1 -220 -20 -303 -55 -93 -38 -92 -51 2 -16 71 26 189 47 305 54 63 4 69
3 93 -23 31 -34 32 -49 3 -39 -42 13 -98 17 -111 8 -26 -21 -108 -36 -163 -29
-45 5 -69 1 -132 -20 -90 -31 -116 -49 -57 -39 22 4 54 11 70 16 29 9 63 12
287 25 106 7 108 7 143 -20 19 -15 35 -36 35 -47 0 -23 -8 -24 -34 -4 -27 21
-83 18 -135 -5 -32 -15 -65 -20 -127 -20 -80 0 -191 -26 -219 -51 -16 -15 22
-10 85 12 34 11 68 18 77 14 9 -3 60 -7 112 -9 53 -2 110 -7 126 -11 23 -5 26
-4 15 4 -8 6 -25 11 -37 11 -12 0 -25 5 -29 11 -5 8 4 10 30 7 27 -3 35 -1 32
9 -11 28 41 7 87 -35 29 -28 39 -79 12 -69 -24 10 -27 -11 -4 -23 14 -8 18
-15 11 -22 -7 -7 -36 0 -91 21 -121 47 -207 40 -348 -28 l-58 -28 -36 109
c-20 61 -46 119 -60 134 -29 31 -81 54 -120 54 -16 0 -29 5 -29 10 0 6 19 10
42 10 27 0 54 8 77 24 20 13 73 44 119 71 45 26 82 49 82 51 0 10 -102 -39
-193 -94 -64 -38 -85 -37 -41 2 l29 26 -45 -19 c-25 -10 -61 -22 -80 -25 -33
-7 -34 -6 -16 9 11 8 25 15 31 15 7 0 20 9 30 20 9 10 33 24 52 31 42 13 92
39 78 39 -6 0 -54 -15 -107 -34 -125 -43 -234 -111 -325 -203 -83 -82 -100
-80 -21 3 87 92 277 206 409 246 21 6 39 15 39 21 0 5 -8 6 -17 2 -10 -4 -57
-18 -105 -31 -124 -33 -152 -47 -231 -112 -123 -100 -162 -147 -198 -238 -28
-75 -31 -91 -27 -162 5 -92 23 -127 92 -185 l46 -38 -7 32 c-5 28 -4 30 13 21
10 -6 48 -36 83 -68 35 -32 59 -49 53 -39 -6 11 -13 28 -16 37 -7 23 -92 85
-136 99 -50 16 -60 27 -60 63 0 18 -7 41 -15 52 -15 20 -21 109 -6 100 5 -3
14 -26 20 -51 14 -57 53 -98 114 -120 28 -10 64 -35 90 -61 23 -24 50 -44 60
-44 9 0 17 -8 17 -17 0 -10 14 -38 30 -63 16 -25 30 -41 30 -36 0 5 7 2 17 -5
15 -13 15 -12 4 8 -6 12 -10 39 -9 60 3 33 7 38 36 44 17 3 38 12 46 18 8 7
27 16 43 20 15 4 27 12 27 17 -1 5 8 20 20 34 11 14 30 45 41 67 20 41 21 42
85 49 115 13 160 11 171 -8 5 -10 10 -21 9 -25 0 -4 -39 -7 -88 -6 -124 1
-159 -12 -57 -21 133 -12 153 -16 179 -43 24 -24 153 -83 182 -83 18 0 34 -40
34 -84 0 -19 7 -39 15 -46 13 -11 15 -6 15 31 0 24 -3 75 -7 112 -6 66 -7 68
-42 83 -25 11 -54 14 -98 10 -68 -6 -69 -5 -106 65 -31 59 -66 68 -170 45 -90
-20 -91 -20 -95 -8 -1 5 21 15 50 22 29 7 64 18 78 25 14 7 40 15 57 18 17 3
36 8 42 11 24 15 195 -48 253 -93 l26 -21 6 48 c28 221 19 280 -65 419 -28 45
-58 105 -68 134 -19 57 -18 56 -101 88 -52 20 -140 26 -195 14z m-248 -420
c48 -36 60 -66 68 -161 11 -119 -19 -183 -106 -227 -67 -34 -127 -34 -160 1
-13 14 -33 30 -44 36 -11 5 -36 18 -55 28 -19 10 -43 16 -54 13 -17 -5 -18 -1
-11 72 9 101 32 153 89 201 93 79 199 93 273 37z m-422 -115 c-8 -36 -20 -54
-28 -41 -6 9 19 73 28 73 4 0 4 -15 0 -32z m1063 -274 c13 -9 22 -24 22 -39 0
-31 -1 -31 -46 0 -20 14 -45 25 -55 25 -10 0 -30 5 -46 12 l-28 11 35 8 c43 8
88 2 118 -17z"/>
<path d="M2054 1931 c-80 -36 -113 -108 -95 -206 8 -46 18 -66 41 -88 17 -15
35 -25 40 -22 5 3 18 -3 30 -15 13 -13 33 -20 59 -20 32 0 44 6 74 39 54 60
67 92 67 167 0 64 -1 68 -37 102 -39 36 -89 62 -120 62 -10 0 -36 -9 -59 -19z
m55 -100 c12 -8 9 -11 -11 -16 -34 -9 -60 -3 -66 13 -4 14 55 17 77 3z m65
-72 c-3 -5 -10 -7 -15 -3 -5 3 -7 10 -3 15 3 5 10 7 15 3 5 -3 7 -10 3 -15z
m-120 3 c2 -4 2 -13 -2 -19 -8 -13 -52 1 -52 17 0 12 46 14 54 2z m106 -42 c0
-5 -4 -10 -9 -10 -6 0 -13 5 -16 10 -3 6 1 10 9 10 9 0 16 -4 16 -10z m-63
-116 c-3 -3 -12 -4 -19 -1 -8 3 -5 6 6 6 11 1 17 -2 13 -5z"/>
<path d="M2245 2330 c-3 -5 -1 -10 4 -10 6 0 11 5 11 10 0 6 -2 10 -4 10 -3 0
-8 -4 -11 -10z"/>
<path d="M640 2199 c0 -5 30 -29 66 -52 48 -30 64 -46 61 -59 -6 -20 17 -43
33 -33 26 16 5 43 -75 97 -47 31 -85 53 -85 47z"/>
<path d="M1089 2119 c78 -68 120 -125 192 -263 57 -110 76 -172 84 -274 6 -69
5 -75 -8 -59 -14 17 -16 14 -31 -31 -16 -46 -52 -90 -116 -141 -19 -15 -12
-13 29 6 59 30 161 117 161 139 0 8 7 14 16 14 13 0 14 3 5 14 -7 8 -16 50
-20 93 -19 187 -151 400 -332 536 -64 48 -52 29 20 -34z"/>
<path d="M1905 2159 c-4 -6 -5 -12 -2 -15 2 -3 7 2 10 11 7 17 1 20 -8 4z"/>
<path d="M2663 2163 c9 -2 25 -2 35 0 9 3 1 5 -18 5 -19 0 -27 -2 -17 -5z"/>
<path d="M710 2101 c0 -5 7 -11 15 -15 8 -3 15 -1 15 3 0 5 -7 11 -15 15 -8 3
-15 1 -15 -3z"/>
<path d="M905 2091 c-6 -11 42 -51 61 -51 18 0 18 10 -2 38 -15 22 -48 30 -59
13z"/>
<path d="M570 2072 c0 -4 14 -16 30 -25 34 -20 40 -42 10 -34 -37 10 -20 -12
28 -37 61 -31 122 -56 122 -51 0 3 -22 16 -49 30 -27 13 -52 29 -56 35 -8 14
-8 13 65 -15 35 -14 69 -25 74 -25 16 0 -74 55 -113 68 -19 7 -49 23 -67 37
-34 26 -44 30 -44 17z"/>
<path d="M834 2065 c-9 -22 0 -38 30 -54 37 -21 58 0 30 30 -30 33 -53 43 -60
24z"/>
<path d="M2662 2070 c-18 -4 -70 -11 -115 -15 -45 -4 -95 -13 -112 -21 -16 -8
-21 -11 -10 -8 11 4 67 10 125 15 102 7 242 37 175 37 -16 0 -45 -4 -63 -8z"/>
<path d="M2626 1958 c3 -5 10 -6 15 -3 13 9 11 12 -6 12 -8 0 -12 -4 -9 -9z"/>
<path d="M2430 1953 c-61 -6 -80 -13 -80 -29 0 -10 4 -12 13 -7 6 4 53 15 102
24 68 13 79 17 45 16 -25 0 -61 -2 -80 -4z"/>
<path d="M2690 1950 c-24 -15 -7 -19 20 -5 15 8 19 14 10 14 -8 1 -22 -3 -30
-9z"/>
<path d="M500 1930 c0 -5 5 -10 10 -10 6 0 10 5 10 10 0 6 -4 10 -10 10 -5 0
-10 -4 -10 -10z"/>
<path d="M2392 1909 c-18 -5 -30 -14 -27 -19 6 -9 49 5 70 22 11 10 1 9 -43
-3z"/>
<path d="M640 1865 c0 -8 17 -19 43 -26 23 -6 52 -15 65 -20 35 -14 49 -11 26
5 -16 12 -121 56 -131 56 -2 0 -3 -7 -3 -15z"/>
<path d="M2548 1853 c7 -3 16 -2 19 1 4 3 -2 6 -13 5 -11 0 -14 -3 -6 -6z"/>
<path d="M2475 1840 c-4 -7 3 -8 22 -4 38 9 42 14 10 14 -14 0 -29 -5 -32 -10z"/>
<path d="M2545 1826 c-63 -17 -109 -35 -103 -42 3 -2 18 0 34 7 16 6 61 19 99
29 39 10 59 18 45 18 -14 0 -47 -5 -75 -12z"/>
<path d="M555 1743 c10 -42 24 -51 41 -29 19 27 18 31 -11 44 -36 17 -38 16
-30 -15z"/>
<path d="M640 1721 c0 -17 7 -19 64 -17 71 1 73 4 18 23 -54 19 -82 17 -82 -6z"/>
<path d="M475 1720 c3 -5 11 -10 16 -10 6 0 7 5 4 10 -3 6 -11 10 -16 10 -6 0
-7 -4 -4 -10z"/>
<path d="M2700 1696 c0 -7 150 -76 164 -76 6 1 -19 16 -56 35 -71 36 -108 50
-108 41z"/>
<path d="M2845 1666 c41 -26 71 -34 60 -15 -7 10 -29 20 -75 33 -18 5 -13 0
15 -18z"/>
<path d="M2885 1600 c3 -5 10 -10 16 -10 5 0 9 5 9 10 0 6 -7 10 -16 10 -8 0
-12 -4 -9 -10z"/>
<path d="M2620 1550 c14 -12 39 -33 55 -47 43 -37 96 -69 127 -76 14 -4 33
-10 42 -13 9 -3 16 -2 16 2 0 10 -59 39 -100 50 -14 3 -45 23 -70 43 -25 21
-56 43 -70 50 l-25 12 25 -21z"/>
<path d="M2420 1547 c0 -7 42 -32 93 -57 50 -24 117 -61 147 -81 86 -56 155
-88 178 -82 16 4 23 -1 27 -20 15 -58 5 -59 -95 -8 -53 27 -115 67 -140 91
-39 38 -52 45 -101 51 -31 3 -79 18 -108 32 -62 32 -67 22 -8 -19 23 -16 86
-73 140 -126 78 -79 97 -103 97 -126 0 -16 6 -34 13 -39 12 -10 70 -26 135
-38 33 -7 46 -35 16 -35 -12 0 -15 -6 -11 -21 3 -12 -1 -32 -9 -45 -48 -81
-46 -78 -58 -62 -6 8 -38 24 -71 35 l-60 20 -47 93 c-56 108 -131 204 -195
250 -34 25 -43 28 -35 13 6 -11 18 -25 26 -33 9 -7 16 -16 16 -21 0 -4 16 -25
36 -46 35 -37 104 -134 104 -146 0 -4 15 -38 34 -77 56 -115 11 -83 -69 49
-55 91 -144 206 -152 197 -3 -3 5 -20 19 -38 14 -18 44 -69 68 -113 85 -157
122 -195 202 -209 37 -7 52 -25 42 -50 -9 -24 -98 3 -110 33 -3 9 -26 33 -50
55 -44 38 -44 38 -44 13 0 -17 10 -33 29 -46 16 -12 39 -36 50 -55 19 -30 39
-42 129 -77 13 -5 27 -7 32 -4 5 3 13 -2 18 -12 11 -20 21 -153 12 -153 -3 0
-11 30 -17 66 -6 36 -14 68 -17 71 -3 3 -32 12 -65 19 -70 17 -163 76 -204
131 -54 73 -66 88 -67 77 0 -6 23 -43 51 -83 49 -71 139 -143 194 -157 17 -4
24 -20 39 -90 10 -47 16 -87 14 -89 -2 -2 -12 26 -22 63 -25 95 -27 97 -78 97
-57 0 -103 34 -171 127 -54 74 -77 88 -29 17 17 -24 46 -69 66 -100 22 -34 48
-62 66 -69 32 -13 36 -20 20 -36 -7 -7 -2 -25 16 -58 21 -37 27 -62 29 -126 1
-44 -2 -80 -6 -80 -5 0 -9 17 -9 38 0 68 -30 144 -89 225 -75 104 -120 169
-125 182 -2 5 -6 7 -10 3 -4 -3 5 -25 19 -48 15 -23 35 -61 45 -84 11 -22 27
-53 37 -68 9 -15 14 -30 10 -34 -13 -14 -50 32 -92 116 -41 82 -79 130 -91
117 -4 -3 5 -27 20 -53 14 -25 26 -54 26 -63 0 -27 56 -135 84 -160 17 -16 22
-27 15 -32 -6 -3 -29 11 -50 32 -22 22 -43 39 -47 39 -4 0 -16 14 -26 31 -10
17 -20 28 -23 25 -3 -3 5 -22 18 -42 15 -25 18 -35 8 -32 -21 6 -78 97 -169
266 -41 76 -68 96 -46 34 17 -47 50 -114 82 -162 13 -20 25 -60 30 -95 8 -70
8 -69 -3 -72 -5 -2 -15 14 -22 34 -29 81 -70 159 -96 183 -15 14 -36 43 -47
65 -24 47 -58 86 -68 80 -13 -8 25 -94 48 -111 12 -8 22 -21 22 -28 0 -7 13
-25 30 -41 28 -26 40 -57 86 -217 11 -38 -15 -15 -28 25 -8 23 -18 42 -23 42
-11 0 -26 -52 -26 -87 0 -60 -30 -37 -43 32 -10 57 -58 200 -66 200 -4 0 -2
-17 6 -37 16 -45 18 -109 4 -118 -11 -7 -12 -5 -34 87 -8 38 -31 104 -51 148
-19 45 -35 94 -35 110 0 17 -4 30 -10 30 -16 0 -11 -52 11 -110 24 -63 22 -58
49 -171 25 -107 25 -148 3 -165 -10 -7 -20 -14 -23 -14 -3 0 -5 36 -6 80 -1
102 -18 125 -22 29 -2 -73 -22 -119 -49 -119 -11 0 -13 6 -8 23 14 45 17 163
5 230 -18 102 -23 90 -34 -87 -7 -105 -20 -151 -30 -106 -3 14 -9 45 -13 70
l-8 44 -27 -79 c-30 -93 -55 -115 -43 -40 11 77 62 246 80 265 10 11 15 30 13
47 l-3 28 -23 -35 c-12 -19 -25 -46 -29 -60 -3 -14 -11 -32 -18 -40 -16 -19
-45 -127 -45 -168 0 -17 -4 -33 -10 -37 -5 -3 -10 28 -12 77 -3 75 -4 79 -12
43 -6 -26 -5 -59 3 -98 15 -71 8 -84 -16 -31 -14 31 -18 66 -18 172 0 72 -3
132 -7 132 -6 0 -40 -98 -51 -149 -3 -13 -2 -31 3 -40 13 -27 30 -155 21 -164
-9 -9 -15 4 -26 61 l-7 32 -24 -35 c-26 -38 -30 -55 -14 -55 26 0 6 -31 -36
-55 -71 -42 -46 -39 50 5 90 41 106 46 106 31 0 -5 -35 -23 -77 -41 -43 -18
-91 -38 -107 -46 -34 -16 -50 -18 -41 -4 10 16 -7 12 -45 -12 -58 -35 -131
-70 -137 -65 -2 3 5 11 17 17 12 6 20 14 17 17 -17 16 -448 -238 -537 -317
-68 -60 -25 -50 78 18 169 113 335 192 435 207 39 6 45 5 50 -14 4 -18 -3 -22
-72 -37 -85 -18 -214 -78 -339 -157 l-83 -52 75 -3 c75 -3 76 -3 163 49 96 56
151 79 192 79 19 0 9 -8 -39 -28 -76 -33 -150 -74 -150 -84 0 -4 33 8 73 27
76 36 157 55 157 37 0 -6 -24 -18 -52 -26 -63 -19 -131 -55 -106 -56 10 0 35
6 55 14 55 21 93 28 93 17 0 -5 -12 -14 -27 -19 -21 -8 -1 -10 81 -9 l109 2
21 74 c12 41 27 76 34 79 9 3 13 -3 11 -14 -1 -11 3 -32 9 -47 15 -35 15 -53
2 -78 -10 -18 -6 -19 127 -19 l138 0 31 77 c29 70 34 103 15 103 -3 0 -24 -34
-45 -75 -22 -41 -41 -73 -43 -72 -2 2 8 37 22 77 27 79 30 100 16 100 -6 0
-20 -27 -32 -60 -21 -58 -39 -85 -39 -59 0 7 11 44 24 83 16 47 26 103 29 165
5 107 -8 103 -22 -6 -5 -37 -15 -84 -24 -103 l-15 -35 4 45 c3 43 3 42 -12
-15 -8 -33 -24 -69 -34 -80 -20 -19 -20 -19 -20 11 0 53 23 146 37 151 7 3 20
0 28 -7 13 -11 15 -8 15 19 0 36 1 35 -62 16 -67 -20 -68 -3 -2 35 31 17 54
34 51 36 -3 3 -40 -9 -83 -26 -42 -17 -82 -29 -88 -27 -6 2 15 14 48 26 60 22
154 67 193 91 26 16 41 7 24 -14 -16 -19 -26 -148 -14 -171 7 -12 11 7 16 73
3 50 11 100 17 112 17 32 20 20 8 -30 -18 -80 12 -301 36 -262 3 5 -1 26 -9
46 -27 64 -13 209 23 238 14 12 14 9 6 -27 -13 -60 -10 -226 6 -255 9 -17 10
-25 1 -28 -6 -2 -11 -12 -11 -22 0 -10 -16 -41 -35 -70 -39 -59 -40 -60 -22
-60 14 0 77 103 77 125 0 7 7 16 16 19 14 5 15 1 10 -28 -9 -49 3 -116 21
-116 11 0 14 7 11 25 -3 14 -1 25 3 25 5 0 9 -11 9 -25 0 -40 20 -29 21 13 l1
37 10 -37 10 -38 149 0 c135 0 149 2 149 18 0 9 5 24 11 32 8 11 9 7 5 -17 -5
-29 -3 -33 15 -33 18 0 21 5 17 39 -2 22 0 37 4 35 5 -3 8 -21 8 -40 0 -19 5
-34 12 -34 25 0 -10 313 -38 335 -7 6 -15 37 -19 70 l-6 60 16 -34 c27 -60 53
-182 64 -301 6 -63 11 -118 11 -122 0 -5 5 -8 11 -8 26 0 -6 308 -45 445 -4
11 1 5 9 -14 25 -54 44 -140 49 -231 8 -127 18 -200 28 -200 8 0 6 84 -7 245
-3 33 -12 92 -20 130 -18 86 -18 99 -1 59 18 -40 44 -203 45 -284 2 -102 11
-150 28 -150 13 0 15 15 11 98 -4 80 -3 91 6 60 6 -20 11 -64 11 -97 l0 -61
43 0 42 0 0 94 c0 101 -32 363 -49 409 -13 34 -13 37 -2 37 19 0 60 -238 71
-415 l9 -130 -4 140 c-5 172 -28 375 -49 433 -11 32 -12 42 -3 40 14 -5 32
-84 51 -231 8 -60 18 -112 22 -115 4 -4 4 16 1 43 -5 39 -4 45 4 25 14 -33 15
-114 5 -233 l-9 -97 46 0 c27 0 47 5 50 13 4 9 6 9 6 0 1 -7 8 -13 17 -13 11
0 14 5 10 16 -3 9 -6 25 -7 37 -1 20 -2 20 -9 -3 -6 -17 -7 -9 -3 25 3 28 9
52 12 55 19 16 -4 280 -35 389 -8 29 -13 55 -11 58 6 5 31 -80 46 -155 20 -98
35 -293 23 -301 -7 -4 -9 -27 -5 -64 6 -56 6 -57 38 -57 l32 0 10 73 10 72 2
-72 c0 -41 5 -73 11 -73 6 0 10 9 10 19 0 11 5 23 10 26 6 4 10 -5 10 -19 0
-14 4 -26 9 -26 5 0 12 60 15 133 23 500 25 517 20 200 -2 -167 -7 -309 -10
-318 -4 -9 0 -15 9 -15 20 0 27 48 28 200 1 114 2 120 11 70 5 -30 7 -103 5
-162 l-6 -108 30 0 29 0 0 126 c0 159 -26 462 -46 533 -19 67 -60 149 -108
216 -20 27 -36 53 -36 56 0 3 11 19 25 34 13 16 34 55 46 87 34 92 10 127
-100 146 -40 7 -46 11 -76 66 -18 33 -43 67 -56 77 -17 13 -19 19 -9 19 9 0
32 -13 51 -30 20 -16 71 -45 113 -64 54 -25 79 -42 85 -59 6 -14 14 -28 20
-31 6 -4 8 -13 4 -21 -3 -8 -1 -15 5 -15 12 0 28 40 42 104 9 40 8 53 -5 73
-16 23 -56 45 -79 42 -29 -4 -47 5 -125 61 -93 66 -161 102 -233 124 -35 10
-48 11 -48 3z m345 -823 c13 -85 14 -119 6 -127 -8 -8 -11 3 -11 43 -1 30 -7
84 -15 120 -17 78 -17 80 -6 80 4 0 16 -52 26 -116z m32 4 c-2 -13 -4 -3 -4
22 0 25 2 35 4 23 2 -13 2 -33 0 -45z m-119 -43 l0 -30 -14 34 c-8 18 -12 41
-8 50 5 14 7 13 14 -4 5 -11 9 -33 8 -50z m-84 -18 c25 -74 18 -89 -9 -22 -25
61 -33 97 -16 80 5 -6 16 -32 25 -58z m225 -125 c1 -40 -3 -61 -9 -57 -6 4 -9
51 -9 113 1 90 3 99 9 57 5 -27 9 -78 9 -113z m-247 66 c37 -75 45 -113 11
-53 -16 28 -37 62 -46 76 -9 14 -14 28 -11 32 11 11 19 1 46 -55z m148 -157
c0 -80 -17 -30 -23 64 l-6 90 14 -55 c8 -30 14 -75 15 -99z m-45 40 c9 -40 12
-77 8 -84 -7 -11 -31 99 -32 147 -2 37 10 8 24 -63z m-282 -56 c9 -44 14 -82
11 -84 -9 -10 -16 10 -25 75 -5 38 -11 80 -14 94 -4 18 -3 21 4 10 5 -9 16
-51 24 -95z m372 -33 c4 -47 3 -72 -4 -76 -8 -5 -11 13 -11 56 0 35 -2 81 -5
103 -4 33 -3 35 4 13 5 -14 12 -58 16 -96z m-348 76 c-3 -7 -5 -2 -5 12 0 14
2 19 5 13 2 -7 2 -19 0 -25z m-52 -120 c4 -22 3 -38 -3 -38 -9 0 -16 39 -27
145 -4 33 -2 31 10 -15 8 -30 17 -72 20 -92z m252 110 c-3 -7 -5 -2 -5 12 0
14 2 19 5 13 2 -7 2 -19 0 -25z m-1024 7 c1 -6 -56 -34 -128 -63 -71 -29 -125
-48 -120 -43 15 15 229 121 238 118 5 -1 9 -7 10 -12z m232 -14 c3 -10 1 -30
-5 -45 -5 -15 -10 -37 -9 -49 l0 -22 9 23 c5 12 16 22 23 22 8 0 18 15 22 33
l8 32 4 -28 c3 -19 -4 -41 -20 -65 -14 -21 -28 -47 -32 -59 -7 -26 -15 -28
-34 -10 -10 10 -12 3 -7 -38 l5 -50 -16 50 c-13 42 -14 60 -4 113 18 97 42
137 56 93z m341 -49 c-9 -8 -13 0 -19 38 l-6 35 15 -34 c8 -18 13 -36 10 -39z
m-56 33 c0 -7 4 -15 10 -17 14 -4 30 -99 30 -172 0 -62 -19 -132 -45 -170 -14
-18 -15 -11 -17 79 0 55 -2 111 -3 125 -1 14 2 34 6 45 5 13 8 -1 8 -42 1 -34
6 -65 12 -68 6 -4 8 -13 6 -19 -3 -7 1 -13 9 -13 17 0 18 9 2 25 -9 9 -9 12 0
12 7 0 12 7 12 16 0 9 -6 14 -14 11 -10 -4 -15 15 -20 86 -3 51 -10 93 -16 95
-5 2 -6 10 -3 18 6 16 23 9 23 -11z m335 -78 c5 -35 4 -57 -2 -57 -10 0 -23
80 -22 130 0 24 1 24 9 4 4 -11 11 -46 15 -77z m-526 42 c-6 -19 -15 -44 -21
-56 -7 -14 -9 -57 -5 -112 5 -83 -2 -117 -18 -91 -4 6 -7 54 -7 108 0 87 3
102 27 145 31 54 40 57 24 6z m708 -11 c-3 -7 -5 -2 -5 12 0 14 2 19 5 13 2
-7 2 -19 0 -25z m-655 -104 c3 -65 9 -138 12 -160 5 -37 3 -43 -17 -48 -12 -3
-25 -2 -29 2 -10 10 -14 305 -4 321 20 32 31 -1 38 -115z m72 -74 c2 -8 4 18
5 59 2 119 10 77 17 -88 l7 -153 -21 11 c-17 9 -22 22 -23 54 l-2 42 -6 -40
c-11 -72 -21 -20 -25 131 l-5 149 13 -110 13 -110 3 115 3 115 8 -80 c5 -44
10 -87 13 -95z m566 150 c0 -5 -2 -10 -4 -10 -3 0 -8 5 -11 10 -3 6 -1 10 4
10 6 0 11 -4 11 -10z m200 -51 c0 -21 -4 -39 -10 -39 -5 0 -10 21 -10 46 0 27
4 43 10 39 6 -3 10 -24 10 -46z m-93 14 c0 -10 5 -62 10 -116 8 -86 4 -132
-10 -117 -7 8 -14 250 -7 250 3 0 6 -8 7 -17z m-62 -97 c4 -37 3 -35 -15 19
-11 33 -20 67 -19 75 0 27 29 -52 34 -94z m-1270 25 c-8 -69 -14 -91 -25 -91
-12 0 -17 30 -14 87 3 61 9 74 30 66 12 -4 14 -17 9 -62z m81 31 c9 -5 9 -26
0 -84 -13 -82 -18 -94 -35 -84 -6 4 -9 36 -6 82 6 93 12 105 41 86z m-141 -62
c0 -22 -39 -19 -43 3 -3 15 1 18 20 15 12 -2 23 -10 23 -18z m-5 -60 c0 -22
-20 -26 -51 -10 -30 16 -23 30 16 30 28 0 35 -4 35 -20z m-15 -41 c17 -17 -9
-31 -38 -20 -38 15 -37 46 1 36 15 -3 31 -11 37 -16z m552 -41 c-3 -8 -6 -5
-6 6 -1 11 2 17 5 13 3 -3 4 -12 1 -19z m-559 -2 c8 -9 -10 -26 -27 -26 -18 0
-41 18 -41 33 0 9 58 2 68 -7z m529 -18 c-3 -8 -6 -5 -6 6 -1 11 2 17 5 13 3
-3 4 -12 1 -19z m553 12 c0 -5 -4 -10 -10 -10 -5 0 -10 5 -10 10 0 6 5 10 10
10 6 0 10 -4 10 -10z"/>
<path d="M1780 380 c0 -5 5 -10 11 -10 5 0 7 5 4 10 -3 6 -8 10 -11 10 -2 0
-4 -4 -4 -10z"/>
<path d="M2120 342 c0 -22 5 -44 10 -47 7 -4 8 8 4 37 -9 57 -14 61 -14 10z"/>
<path d="M1940 330 c0 -46 2 -81 5 -79 7 8 8 149 1 156 -3 4 -6 -31 -6 -77z"/>
<path d="M2550 1539 c24 -11 59 -29 77 -40 48 -30 40 -16 -13 26 -32 23 -57
35 -78 34 -30 0 -30 -1 14 -20z"/>
<path d="M739 1503 c-13 -17 -13 -17 6 -3 11 8 22 16 24 17 2 2 0 3 -6 3 -6 0
-17 -8 -24 -17z"/>
<path d="M1775 1505 c4 -11 17 -42 27 -70 l19 -50 -6 50 c-4 31 -14 58 -27 70
l-21 20 8 -20z"/>
<path d="M2400 1510 c8 -5 20 -10 25 -10 6 0 3 5 -5 10 -8 5 -19 10 -25 10 -5
0 -3 -5 5 -10z"/>
<path d="M877 1477 c-82 -65 -107 -93 -133 -145 -15 -31 -37 -70 -49 -87 -13
-16 -35 -52 -50 -80 -39 -72 -46 -80 -115 -142 -57 -52 -64 -55 -75 -39 -7 9
-21 16 -31 14 -10 -2 -20 4 -21 12 -3 10 19 26 63 48 90 45 177 129 215 209
37 77 36 109 -1 70 -13 -14 -36 -47 -50 -73 -29 -55 -241 -243 -275 -244 -11
0 -28 -8 -36 -17 -9 -10 -58 -56 -110 -102 -159 -143 -209 -197 -209 -227 0
-24 8 -18 83 60 80 82 116 103 132 76 3 -5 -44 -60 -104 -122 -91 -93 -111
-118 -111 -143 l1 -30 37 41 c20 22 73 81 117 130 110 124 268 279 272 267 8
-23 -112 -166 -264 -318 l-163 -161 0 -238 0 -239 22 19 c19 15 20 16 9 2 -12
-17 -9 -18 48 -18 41 0 70 6 90 18 37 23 74 68 66 82 -3 5 16 45 44 87 34 55
51 93 56 128 7 47 36 110 59 128 8 6 7 10 -1 14 -19 7 -16 24 10 51 15 17 18
26 10 29 -20 7 -15 24 14 55 21 22 24 30 14 42 -9 11 3 25 66 78 109 90 148
118 161 118 23 0 11 -16 -38 -54 -28 -21 -49 -41 -46 -43 3 -3 17 4 32 16 15
11 36 21 48 21 19 0 18 -2 -9 -25 -34 -27 -27 -33 10 -9 14 9 25 12 25 6 0 -6
-36 -39 -79 -74 -84 -67 -100 -89 -29 -40 24 16 68 41 98 56 l55 27 -45 -41
-45 -41 51 31 c28 16 55 30 59 30 16 0 -21 -33 -75 -67 -69 -44 -153 -114
-145 -121 2 -3 26 13 52 35 66 54 136 101 179 119 50 21 34 1 -39 -48 -101
-68 -348 -325 -402 -418 -5 -8 54 49 131 126 143 145 285 263 348 289 53 22
44 1 -17 -39 -29 -19 -70 -51 -92 -71 l-40 -37 50 36 c75 54 179 116 194 116
7 0 -25 -28 -73 -62 -47 -35 -86 -67 -86 -71 0 -4 28 12 63 36 110 78 133 88
159 78 12 -5 32 -12 43 -16 16 -5 13 -10 -24 -30 -56 -32 -82 -34 -55 -3 41
46 -86 -35 -184 -118 -128 -108 -229 -204 -217 -204 6 0 53 34 105 75 52 41
129 95 170 119 205 119 238 136 258 136 12 0 22 -4 22 -8 0 -9 -123 -84 -200
-122 -56 -28 -192 -121 -186 -127 3 -3 24 8 48 25 45 30 354 207 380 217 17 7
48 -19 48 -40 0 -13 -90 -60 -139 -72 l-26 -6 28 23 c39 31 26 38 -15 7 -18
-14 -60 -38 -93 -55 -33 -16 -78 -44 -100 -62 -22 -18 -51 -38 -65 -45 -68
-35 -355 -285 -327 -285 7 0 62 39 121 88 169 136 222 171 355 234 68 33 153
78 190 100 36 22 89 54 116 70 63 38 60 35 45 53 -20 24 8 209 38 249 8 11 32
86 32 101 0 12 -48 -61 -74 -113 -23 -46 -48 -119 -60 -175 -8 -33 -26 -36
-27 -4 0 12 -3 16 -6 10 -9 -25 -25 -13 -19 14 5 25 4 26 -7 10 -33 -51 -38
-53 -31 -22 l6 30 -23 -32 c-13 -18 -27 -33 -31 -33 -5 0 -8 22 -8 50 0 52 28
135 62 182 35 51 13 41 -40 -17 -31 -34 -57 -74 -67 -105 -32 -96 -49 -61 -19
40 20 67 103 182 198 271 39 37 68 70 65 73 -11 11 -164 -141 -194 -193 -17
-29 -37 -51 -47 -51 -15 0 -60 -79 -82 -143 -3 -10 -11 -15 -16 -12 -6 4 -8
16 -4 27 4 14 2 18 -5 14 -6 -4 -11 -14 -11 -22 0 -8 -5 -14 -11 -14 -10 0 -9
16 7 67 4 14 1 13 -12 -4 -9 -13 -23 -23 -31 -23 -28 0 -24 31 15 97 41 69 74
106 125 138 31 20 152 163 144 171 -2 3 -32 -27 -66 -65 -34 -38 -86 -86 -117
-106 -30 -20 -62 -48 -71 -63 -26 -42 -96 -112 -111 -112 -10 0 -12 7 -8 25 5
20 3 25 -14 25 -31 0 -24 27 20 83 44 54 53 79 48 123 -3 28 -4 28 -25 -17
-25 -54 -87 -109 -121 -109 -13 0 -20 4 -17 10 3 6 -1 7 -9 4 -24 -9 -19 5 18
50 35 43 76 117 76 137 0 7 -17 -15 -38 -47 -22 -33 -61 -79 -88 -102 -33 -28
-42 -40 -26 -36 32 9 27 -2 -20 -46 -24 -22 -38 -40 -32 -40 6 0 21 11 34 25
22 23 60 34 60 18 0 -4 -19 -24 -42 -45 -49 -43 -48 -50 2 -13 19 14 43 25 54
25 17 -1 14 -6 -19 -33 -22 -18 -61 -51 -88 -74 -26 -24 -54 -43 -62 -43 -24
0 -17 30 10 42 30 13 28 28 -6 45 -25 13 -28 40 -5 58 18 15 76 102 76 114 0
6 33 50 74 97 43 50 91 120 115 168 74 145 87 166 142 222 54 55 57 72 6 31z
m-568 -567 c-37 -44 -79 -66 -79 -41 0 15 114 113 118 102 2 -6 -16 -33 -39
-61z m159 -28 c-18 -22 -60 -70 -92 -108 -33 -38 -82 -93 -110 -121 -61 -65
-54 -69 14 -8 27 24 60 49 72 56 l23 12 -20 -24 c-10 -13 -55 -62 -100 -108
-73 -77 -55 -74 28 3 16 15 40 34 54 43 25 17 26 17 15 -2 -6 -11 -42 -51 -81
-90 -39 -38 -71 -74 -71 -79 0 -5 6 -3 13 5 13 16 92 80 116 94 23 13 2 -17
-64 -90 -33 -37 -75 -77 -94 -90 -33 -23 -35 -23 -63 -7 -36 21 -35 29 5 70
17 18 25 30 16 27 -31 -12 -29 13 2 45 28 28 30 32 15 43 -15 11 4 34 156 190
95 98 179 177 186 177 8 0 0 -16 -20 -38z m-168 -462 c0 -19 -152 -170 -171
-170 -11 0 -19 5 -19 11 0 15 170 169 187 169 2 0 3 -5 3 -10z m-49 -124 c-16
-17 -19 -26 -11 -31 13 -8 -55 -85 -75 -85 -7 0 -20 -9 -30 -20 -18 -20 -55
-28 -55 -11 0 36 136 169 174 170 18 1 18 -1 -3 -23z m-31 -125 c0 -15 -29
-33 -41 -25 -9 5 -7 11 6 21 22 15 35 17 35 4z m0 -50 c0 -15 -29 -33 -41 -25
-9 5 -7 11 6 21 22 15 35 17 35 4z m-20 -48 c0 -12 -33 -43 -47 -43 -21 0 -15
26 10 38 26 13 37 14 37 5z"/>
<path d="M1496 1460 c9 -52 14 -70 23 -70 12 0 41 68 40 93 -1 17 -2 18 -6 5
-5 -22 -23 -24 -23 -4 0 9 -9 14 -20 13 -17 -1 -19 -6 -14 -37z"/>
<path d="M674 1454 c-32 -29 -33 -32 -8 -15 29 19 62 51 52 51 -3 0 -22 -16
-44 -36z"/>
<path d="M730 1455 c-19 -14 -46 -38 -60 -53 -79 -83 -202 -192 -217 -192 -13
0 -8 8 17 30 19 16 38 29 41 30 3 0 32 30 65 68 61 69 51 64 -72 -41 -38 -32
-80 -61 -94 -63 -16 -4 -31 -17 -39 -35 -7 -16 -20 -29 -31 -29 -16 0 -49 -28
-42 -37 7 -9 -92 -75 -153 -103 -36 -16 -83 -46 -105 -66 -37 -35 -40 -41 -40
-93 l0 -55 63 61 c34 33 102 93 152 133 69 55 95 70 114 67 18 -4 39 7 80 40
68 55 169 151 206 195 47 57 113 125 142 147 15 11 23 21 17 21 -5 0 -25 -11
-44 -25z"/>
<path d="M1612 1447 c-37 -38 -39 -47 -14 -47 11 0 24 -11 30 -24 9 -20 6 -31
-18 -69 -43 -68 -62 -134 -62 -209 0 -38 -3 -68 -8 -68 -17 0 -49 116 -48 170
2 90 -32 260 -52 260 -4 0 -1 -37 6 -82 6 -46 9 -113 7 -150 -4 -39 -2 -73 4
-80 6 -7 16 -31 23 -53 16 -51 66 -152 80 -160 12 -7 16 4 25 68 6 43 14 55
70 108 35 33 70 75 79 93 21 44 37 163 28 205 -9 41 -27 51 -36 19 -7 -26 -64
-93 -73 -85 -2 3 0 14 6 25 15 28 14 45 -3 39 -11 -4 -13 3 -9 34 3 21 4 39 1
39 -2 0 -18 -15 -36 -33z m128 -110 c0 -58 -65 -179 -111 -205 -16 -10 -29
-21 -29 -25 0 -5 -4 -5 -10 -2 -5 3 -10 15 -10 26 0 26 39 119 57 139 12 13
13 11 7 -15 -3 -16 -13 -43 -20 -59 -18 -37 -18 -52 0 -37 16 13 76 151 76
173 0 18 21 39 32 32 4 -3 8 -15 8 -27z"/>
<path d="M2035 1449 c-4 -12 -2 -26 4 -32 13 -13 18 -9 26 26 6 21 4 27 -8 27
-9 0 -19 -9 -22 -21z"/>
<path d="M892 1430 c-23 -17 -42 -33 -42 -36 0 -8 59 29 77 49 24 25 11 21
-35 -13z"/>
<path d="M953 1413 c-7 -2 -13 -9 -13 -15 0 -14 43 -6 48 10 4 12 -12 15 -35
5z"/>
<path d="M2430 1393 c0 -5 20 -29 43 -55 24 -26 49 -65 56 -90 20 -66 78 -146
135 -184 44 -30 52 -32 65 -19 13 13 12 18 -8 39 -12 13 -43 35 -68 48 -39 20
-50 33 -78 95 -19 40 -46 88 -62 108 -27 35 -83 74 -83 58z"/>
<path d="M2795 1390 c3 -5 14 -10 23 -10 15 0 15 2 2 10 -20 13 -33 13 -25 0z"/>
<path d="M877 1362 c-15 -15 -27 -38 -27 -49 0 -12 -4 -25 -10 -28 -17 -11
-11 -31 13 -42 20 -9 30 -4 85 48 61 57 73 79 22 39 -27 -21 -51 -27 -32 -8
27 27 10 30 -18 3 -41 -39 -49 -26 -11 18 17 19 31 37 31 41 0 15 -29 3 -53
-22z"/>
<path d="M1910 1381 c0 -9 70 -214 76 -220 1 -1 7 0 13 4 7 4 2 24 -15 57 -26
52 -26 70 2 47 9 -7 2 14 -17 54 -18 37 -39 67 -46 67 -7 0 -13 -4 -13 -9z"/>
<path d="M1073 1267 c-18 -12 -33 -26 -33 -30 0 -9 56 28 65 43 8 14 5 12 -32
-13z"/>
<path d="M1240 1275 c-35 -10 -220 -177 -220 -198 0 -6 33 24 73 66 48 52 79
77 95 77 29 0 28 -4 -10 -40 -17 -17 -29 -32 -26 -35 3 -3 23 14 44 38 57 64
86 99 82 101 -2 1 -19 -3 -38 -9z"/>
<path d="M1155 1269 c-11 -17 1 -21 15 -4 8 9 8 15 2 15 -6 0 -14 -5 -17 -11z"/>
<path d="M800 1186 c-6 -24 -10 -52 -8 -61 4 -22 28 -33 28 -13 0 8 9 31 20
53 15 29 17 42 9 52 -20 24 -36 14 -49 -31z"/>
<path d="M989 1189 c-36 -39 -38 -61 -3 -28 27 25 49 59 38 59 -3 0 -19 -14
-35 -31z"/>
<path d="M2230 1086 c0 -8 5 -18 10 -21 6 -3 10 1 10 9 0 8 -4 18 -10 21 -5 3
-10 -1 -10 -9z"/>
<path d="M1121 1030 c-17 -22 -27 -40 -22 -40 12 0 66 69 59 75 -3 3 -19 -13
-37 -35z"/>
<path d="M77 847 c-47 -44 -77 -80 -77 -92 0 -16 5 -14 33 15 105 111 139 150
131 150 -5 0 -44 -33 -87 -73z"/>
<path d="M1332 763 c-29 -68 -34 -98 -27 -169 6 -52 11 -63 28 -68 14 -3 30 2
45 17 31 28 67 97 51 97 -7 0 -9 11 -5 30 3 17 2 29 -3 26 -5 -3 -11 -19 -14
-35 -3 -16 -17 -41 -31 -56 -22 -23 -25 -24 -30 -8 -14 46 -5 156 16 196 5 9
5 17 0 17 -5 0 -18 -21 -30 -47z"/>
<path d="M1382 748 c-6 -24 -13 -63 -16 -88 -9 -68 11 -14 24 62 11 73 7 87
-8 26z"/>
<path d="M1101 719 c-7 -12 -10 -23 -8 -26 3 -3 11 5 17 17 15 28 8 35 -9 9z"/>
<path d="M465 530 c-10 -11 -14 -20 -9 -20 5 0 15 9 22 20 7 11 11 20 9 20 -2
0 -12 -9 -22 -20z"/>
<path d="M615 430 c-16 -16 -26 -32 -24 -35 3 -3 18 9 34 25 16 16 26 32 24
35 -3 3 -18 -9 -34 -25z"/>
<path d="M685 440 c-3 -5 -2 -10 4 -10 5 0 13 5 16 10 3 6 2 10 -4 10 -5 0
-13 -4 -16 -10z"/>
<path d="M1140 411 c-25 -15 -101 -56 -170 -91 -139 -71 -266 -145 -277 -163
-3 -6 9 -2 28 10 19 11 102 56 184 99 147 76 310 174 290 174 -5 0 -30 -13
-55 -29z"/>
<path d="M1222 413 c-24 -14 -41 -27 -39 -30 3 -2 22 6 43 18 48 28 48 28 43
33 -2 2 -23 -7 -47 -21z"/>
<path d="M545 360 c-16 -16 -27 -31 -24 -33 2 -2 17 11 32 30 36 41 31 43 -8
3z"/>
<path d="M469 283 c-43 -48 -55 -69 -20 -38 29 27 58 65 48 65 -2 0 -14 -12
-28 -27z"/>
<path d="M603 228 c-35 -28 -61 -54 -58 -56 4 -5 39 21 105 77 59 51 19 33
-47 -21z"/>
<path d="M1662 240 c0 -14 2 -19 5 -12 2 6 2 18 0 25 -3 6 -5 1 -5 -13z"/>
<path d="M380 35 c-19 -19 -29 -35 -24 -35 6 0 25 16 44 35 19 19 29 35 24 35
-6 0 -25 -16 -44 -35z"/>
<path d="M1752 45 c-29 -37 -28 -45 8 -45 31 0 37 14 21 54 -7 17 -9 17 -29
-9z"/>
<path d="M515 10 c-3 -5 -1 -10 4 -10 6 0 11 5 11 10 0 6 -2 10 -4 10 -3 0 -8
-4 -11 -10z"/>
</g>
</svg>
