<svg width="19" height="24" viewBox="0 0 19 24" fill="none" xmlns="http://www.w3.org/2000/svg">
<path fill-rule="evenodd" clip-rule="evenodd" d="M18.4231 0.999817V0.21875L17.7132 0.546021L17.6828 0.560104L17.5936 0.601532C17.5156 0.637878 17.4012 0.691391 17.2549 0.760376C16.9623 0.898331 16.5422 1.09813 16.0313 1.34598C15.0096 1.84152 13.6231 2.52985 12.1652 3.30031C10.7085 4.07018 9.1745 4.92519 7.86015 5.75406C6.58847 6.55602 5.47424 7.36272 4.85048 8.06508C3.88947 8.76987 2.68736 10.3196 1.97386 12.0592C1.24999 13.8241 0.963567 15.9547 2.159 17.6503C2.71228 18.4351 3.42923 19.0765 4.23995 19.5786C3.93004 19.8928 3.62569 20.1927 3.33035 20.4742C2.28373 21.472 1.37956 22.2119 0.754639 22.5639L1.24545 23.4352C1.98605 23.018 2.96578 22.2034 4.02038 21.198C4.38881 20.8468 4.76997 20.4688 5.15758 20.071C6.20425 20.5541 7.34994 20.8376 8.47278 20.9287C10.8514 21.1216 13.3071 20.4604 14.5768 18.7796C15.1928 17.964 15.7282 16.6865 16.1882 15.2167C16.6524 13.7336 17.0546 12.0049 17.3846 10.2497C18.0435 6.74472 18.4231 3.08618 18.4231 0.999817ZM5.89288 19.3011C6.73145 19.6461 7.64164 19.858 8.55361 19.932C10.7629 20.1111 12.8013 19.4709 13.7789 18.1768C14.2864 17.5049 14.781 16.3652 15.2339 14.918C15.6826 13.4842 16.0763 11.7962 16.4018 10.065C16.9748 7.01711 17.3295 3.87238 17.407 1.79471C17.1496 1.91698 16.832 2.06902 16.4677 2.24573C15.4528 2.73798 14.0772 3.42093 12.6325 4.18445C11.1866 4.94855 9.67751 5.79021 8.39357 6.5999C7.09448 7.41914 6.0758 8.17532 5.56762 8.764L5.52793 8.80997L5.47839 8.84511C4.69947 9.39754 3.5714 10.7994 2.89906 12.4387C2.2248 14.0826 2.07438 15.7948 2.97631 17.0741C3.48437 17.7947 4.16788 18.3851 4.95343 18.84C5.50814 18.2545 6.0718 17.6335 6.6257 16.998C7.73508 15.7251 8.80056 14.3992 9.67289 13.1881C10.5507 11.9694 11.2137 10.8934 11.5386 10.1147L12.4615 10.4998C12.091 11.3878 11.3726 12.5394 10.4843 13.7726C9.59047 15.0135 8.50494 16.3638 7.37956 17.655C6.88832 18.2187 6.38858 18.7721 5.89288 19.3011ZM17.7132 0.546021C17.7133 0.545959 17.7138 0.545746 17.9231 0.999817L17.7132 0.546021Z" fill="black"/>
</svg>
