<svg width="746" height="501" viewBox="0 0 746 501" fill="none" xmlns="http://www.w3.org/2000/svg">
<path fill-rule="evenodd" clip-rule="evenodd" d="M368.555 5.73207H640.202L556.876 234.712C556.715 235.155 556.668 235.624 556.73 236.078L556.704 236.082C559.089 253.962 565.193 277.437 579.491 296.508C593.892 315.716 616.495 330.283 651.327 330.283C686.23 330.283 709.401 314.478 724.054 294.732C738.51 275.251 744.665 251.979 745.938 236.279C746.058 235.715 746.005 235.119 745.773 234.573L646.924 1.74183C646.468 0.667035 645.404 -0.0217018 644.237 0.000522275L644.182 0H87.765C87.7352 0 87.7056 0.000452028 87.6761 0.00134958C87.6218 -0.000314564 87.5673 -0.000445713 87.5125 0.0009896C86.3377 0.0317893 85.3013 0.777627 84.8996 1.88132L0.172216 234.712C0.0108977 235.155 -0.0358138 235.624 0.0267277 236.078L0 236.082C2.38569 253.962 8.48899 277.437 22.787 296.508C37.1885 315.716 59.7913 330.283 94.6231 330.283C129.526 330.283 152.697 314.478 167.35 294.732C181.807 275.251 187.961 251.979 189.235 236.279C189.354 235.715 189.301 235.119 189.069 234.573L91.9146 5.73207H362.819V495.268H209.918V501H521.456V495.268H368.555V5.73207ZM739.971 238.547H562.837C565.439 255.425 571.412 276.2 584.069 293.08C597.439 310.913 618.377 324.567 651.327 324.567C684.206 324.567 705.752 309.799 719.459 291.328C732.336 273.975 738.304 253.315 739.971 238.547ZM563.647 232.831L644.496 10.6583L738.82 232.831H563.647ZM6.13307 238.547H183.268C181.6 253.315 175.632 273.975 162.755 291.328C149.048 309.799 127.502 324.567 94.6231 324.567C61.6729 324.567 40.7352 310.913 27.3649 293.08C14.7088 276.2 8.73535 255.425 6.13307 238.547ZM87.7923 10.6583L6.94349 232.831H182.116L87.7923 10.6583Z" fill="black"/>
</svg>
