<svg width="20" height="22" viewBox="0 0 20 22" fill="none" xmlns="http://www.w3.org/2000/svg">
<path fill-rule="evenodd" clip-rule="evenodd" d="M8 15C8 13.8954 8.89543 13 10 13C11.1046 13 12 13.8954 12 15V16C12 17.1046 11.1046 18 10 18C8.89543 18 8 17.1046 8 16V15ZM11 15V16C11 16.5523 10.5523 17 10 17C9.44772 17 9 16.5523 9 16V15C9 14.4477 9.44771 14 10 14C10.5523 14 11 14.4477 11 15Z" fill="black"/>
<path fill-rule="evenodd" clip-rule="evenodd" d="M4.5 6V9.5H3C1.61929 9.5 0.5 10.6193 0.5 12V19C0.5 20.3807 1.61929 21.5 3 21.5H17C18.3807 21.5 19.5 20.3807 19.5 19V12C19.5 10.6193 18.3807 9.5 17 9.5H15.5V6C15.5 4.54131 14.9205 3.14236 13.8891 2.11091C12.8576 1.07946 11.4587 0.5 10 0.5C8.54131 0.5 7.14236 1.07946 6.11091 2.11091C5.07946 3.14236 4.5 4.54131 4.5 6ZM10 1.5C8.80653 1.5 7.66193 1.97411 6.81802 2.81802C5.97411 3.66193 5.5 4.80653 5.5 6V9.5H14.5V6C14.5 4.80653 14.0259 3.66193 13.182 2.81802C12.3381 1.97411 11.1935 1.5 10 1.5ZM1.5 12C1.5 11.1716 2.17157 10.5 3 10.5H17C17.8284 10.5 18.5 11.1716 18.5 12V19C18.5 19.8284 17.8284 20.5 17 20.5H3C2.17157 20.5 1.5 19.8284 1.5 19V12Z" fill="black"/>
</svg>
