<svg width="116" height="85" viewBox="0 0 116 85" fill="none" xmlns="http://www.w3.org/2000/svg">
<path fill-rule="evenodd" clip-rule="evenodd" d="M57.8333 26.3335C48.9967 26.3335 41.8333 33.4969 41.8333 42.3335C41.8333 51.1701 48.9967 58.3335 57.8333 58.3335C66.6699 58.3335 73.8333 51.1701 73.8333 42.3335C73.8333 33.4969 66.6699 26.3335 57.8333 26.3335ZM42.8333 42.3335C42.8333 34.0492 49.549 27.3335 57.8333 27.3335C66.1176 27.3335 72.8333 34.0492 72.8333 42.3335C72.8333 50.6178 66.1176 57.3335 57.8333 57.3335C49.549 57.3335 42.8333 50.6178 42.8333 42.3335Z" fill="black"/>
<path fill-rule="evenodd" clip-rule="evenodd" d="M115.114 42.5577C115.114 42.5572 115.114 42.5569 114.667 42.3333L115.114 42.5577C115.184 42.417 115.184 42.2505 115.114 42.1097L114.667 42.3333C115.114 42.1097 115.114 42.1102 115.114 42.1097L115.11 42.101L115.098 42.0773C115.091 42.0644 115.083 42.0477 115.072 42.0273C115.066 42.0149 115.059 42.0012 115.051 41.9861C115.01 41.9062 114.949 41.7884 114.868 41.6353C114.706 41.329 114.464 40.8812 114.144 40.3122C113.504 39.1741 112.55 37.5508 111.292 35.6037C108.778 31.7107 105.047 26.5186 100.177 21.3247C90.4478 10.9466 76.1165 0.5 57.8334 0.5C39.5503 0.5 25.219 10.9466 15.4894 21.3247C10.6201 26.5186 6.88858 31.7107 4.3743 35.6037C3.11685 37.5508 2.16305 39.1741 1.52292 40.3122C1.20284 40.8812 0.961124 41.329 0.799037 41.6353C0.717992 41.7884 0.656848 41.9062 0.615764 41.9861C0.595221 42.0261 0.579693 42.0566 0.569199 42.0773L0.557235 42.101L0.554089 42.1072L0.553226 42.1089C0.552992 42.1094 0.552836 42.1097 1.00005 42.3333L0.553226 42.1089C0.482844 42.2497 0.482454 42.4162 0.552836 42.5569L1.00005 42.3333C0.552836 42.5569 0.552602 42.5565 0.552836 42.5569L0.554089 42.5594L0.557235 42.5657L0.569199 42.5894C0.579693 42.6101 0.595221 42.6406 0.615764 42.6805C0.656848 42.7604 0.717992 42.8782 0.799037 43.0314C0.961124 43.3377 1.20284 43.7855 1.52292 44.3545C2.16305 45.4925 3.11685 47.1159 4.3743 49.0629C6.88858 52.956 10.6201 58.148 15.4894 63.342C25.219 73.7201 39.5503 84.1667 57.8334 84.1667C76.1165 84.1667 90.4478 73.7201 100.177 63.342C105.047 58.148 108.778 52.956 111.292 49.0629C112.55 47.1159 113.504 45.4925 114.144 44.3545C114.464 43.7855 114.706 43.3377 114.868 43.0314C114.949 42.8782 115.01 42.7604 115.051 42.6805C115.072 42.6406 115.087 42.6101 115.098 42.5894L115.11 42.5657L115.113 42.5594L115.114 42.5577ZM1.68291 42.5637C1.63549 42.474 1.59518 42.3971 1.56203 42.3333C1.59518 42.2696 1.63549 42.1926 1.68291 42.103C1.84122 41.8038 2.07884 41.3636 2.3945 40.8024C3.02585 39.68 3.96919 38.0742 5.21434 36.1463C7.70527 32.2893 11.4008 27.148 16.219 22.0086C25.8645 11.7201 39.9498 1.5 57.8334 1.5C75.7169 1.5 89.8023 11.7201 99.4478 22.0086C104.266 27.148 107.961 32.2893 110.452 36.1463C111.698 38.0742 112.641 39.68 113.272 40.8024C113.588 41.3636 113.826 41.8038 113.984 42.103C114.031 42.1926 114.072 42.2696 114.105 42.3333C114.072 42.3971 114.031 42.474 113.984 42.5637C113.826 42.8628 113.588 43.3031 113.272 43.8642C112.641 44.9866 111.698 46.5924 110.452 48.5204C107.961 52.3773 104.266 57.5186 99.4478 62.658C89.8023 72.9465 75.7169 83.1667 57.8334 83.1667C39.9498 83.1667 25.8645 72.9465 16.219 62.658C11.4008 57.5186 7.70527 52.3773 5.21434 48.5204C3.96919 46.5924 3.02585 44.9866 2.3945 43.8642C2.07884 43.3031 1.84122 42.8628 1.68291 42.5637Z" fill="black"/>
</svg>
