<svg width="83" height="93" viewBox="0 0 83 93" fill="none" xmlns="http://www.w3.org/2000/svg">
<path fill-rule="evenodd" clip-rule="evenodd" d="M37 58.5C37 56.0147 39.0147 54 41.5 54C43.9853 54 46 56.0147 46 58.5V74.5C46 76.9853 43.9853 79 41.5 79C39.0147 79 37 76.9853 37 74.5V58.5ZM45 58.5V74.5C45 76.433 43.433 78 41.5 78C39.567 78 38 76.433 38 74.5V58.5C38 56.567 39.567 55 41.5 55C43.433 55 45 56.567 45 58.5Z" fill="black"/>
<path fill-rule="evenodd" clip-rule="evenodd" d="M18.6111 23.6389V41.25H10.0556C4.77817 41.25 0.5 45.5282 0.5 50.8056V82.5C0.5 87.7774 4.77817 92.0556 10.0556 92.0556H73.4445C78.7219 92.0556 83.0001 87.7774 83.0001 82.5V50.8056C83.0001 45.5282 78.7219 41.25 73.4445 41.25H64.8889V23.6389C64.8889 17.5021 62.4511 11.6166 58.1117 7.27723C53.7723 2.93784 47.8868 0.5 41.75 0.5C35.6132 0.5 29.7277 2.93784 25.3883 7.27723C21.0489 11.6166 18.6111 17.5021 18.6111 23.6389ZM41.75 1.5C35.8784 1.5 30.2473 3.83249 26.0954 7.98434C21.9436 12.1362 19.6111 17.7673 19.6111 23.6389V41.25H63.8889V23.6389C63.8889 17.7673 61.5564 12.1362 57.4046 7.98434C53.2527 3.83249 47.6216 1.5 41.75 1.5ZM19.1111 42.25L19.1052 42.25H10.0556C5.33046 42.25 1.5 46.0805 1.5 50.8056V82.5C1.5 87.2251 5.33046 91.0556 10.0556 91.0556H73.4445C78.1696 91.0556 82.0001 87.2251 82.0001 82.5V50.8056C82.0001 46.0805 78.1696 42.25 73.4445 42.25H64.3948L64.3889 42.25L64.383 42.25H19.117L19.1111 42.25Z" fill="black"/>
</svg>
