<svg width="79" height="102" viewBox="0 0 79 102" fill="none" xmlns="http://www.w3.org/2000/svg">
<path fill-rule="evenodd" clip-rule="evenodd" d="M78.4235 1.00031V0.219238L77.7136 0.546508L77.5762 0.610045C77.4854 0.652126 77.3507 0.714691 77.1745 0.796759C76.8223 0.960895 76.3045 1.20305 75.6421 1.51538C74.3173 2.14003 72.4137 3.04542 70.0977 4.16881C65.4658 6.41543 59.1828 9.53467 52.5793 13.0245C45.9771 16.5137 39.0486 20.3764 33.1281 24.11C27.2527 27.8152 22.3204 31.4234 19.7028 34.4344C15.6411 37.3393 10.258 44.1623 7.06668 51.9432C3.86429 59.7511 2.80348 68.6937 7.717 75.6632C10.5045 79.6171 14.2902 82.7456 18.5894 85.0554C16.6162 87.0974 14.6779 89.029 12.8156 90.8044C8.0441 95.3534 3.80026 98.849 0.754639 100.565L1.24545 101.436C4.40675 99.6551 8.72615 96.0848 13.5057 91.5282C15.4435 89.6808 17.4618 87.6665 19.5152 85.5362C24.3465 87.9611 29.7633 89.3859 35.1105 89.8195C45.6222 90.672 56.045 87.7038 61.2983 80.7491C63.9062 77.2966 66.2674 71.734 68.3458 65.0933C70.4283 58.4392 72.2414 50.6536 73.7333 42.718C76.716 26.8521 78.4235 10.3382 78.4235 1.00031ZM20.2408 84.7801C24.8687 87.0554 30.0493 88.4058 35.1913 88.8228C45.5336 89.6615 55.5392 86.7143 60.5004 80.1463C62.9998 76.8375 65.3202 71.4127 67.3914 64.7946C69.4585 58.1898 71.2631 50.445 72.7505 42.5333C75.6438 27.143 77.3285 11.1669 77.4196 1.78586C77.0804 1.9442 76.6259 2.15711 76.0686 2.41988C74.7467 3.04317 72.8464 3.94697 70.5341 5.06855C65.909 7.31188 59.6368 10.4258 53.0466 13.9086C46.4552 17.392 39.5516 21.2414 33.6615 24.9559C27.7563 28.6799 22.92 32.2378 20.42 35.1337L20.3803 35.1797L20.3308 35.2149C16.4534 37.9647 11.1427 44.6405 7.99189 52.3227C4.83911 60.0096 3.91429 68.5338 8.5343 75.087C11.274 78.973 15.03 82.0484 19.3103 84.3061C22.1545 81.3369 25.0607 78.1515 27.9077 74.885C32.9787 69.0666 37.8574 62.9963 41.8606 57.4387C45.8694 51.8733 48.9811 46.8484 50.5388 43.1152L51.4617 43.5003C49.8584 47.3429 46.6913 52.4433 42.6721 58.0231C38.6473 63.6106 33.7486 69.7053 28.6615 75.542C25.8751 78.7391 23.0307 81.8604 20.2408 84.7801ZM77.7136 0.546508C77.7136 0.546508 77.7142 0.546232 77.9235 1.00031L77.7136 0.546508Z" fill="black"/>
</svg>
