<?xml version="1.0" encoding="utf-8"?>
<!-- Generator: Adobe Illustrator 25.2.0, SVG Export Plug-In . SVG Version: 6.00 Build 0)  -->
<svg version="1.1" id="Calque_1" xmlns="http://www.w3.org/2000/svg" xmlns:xlink="http://www.w3.org/1999/xlink" x="0px" y="0px"
	 viewBox="0 0 13 15" style="enable-background:new 0 0 13 15;" xml:space="preserve">
<style type="text/css">
	.st0{fill:#2A2E3B;}
</style>
<g>
	<path class="st0" d="M6.1,12.1c0.1,0.1,0.2,0.2,0.4,0.2c0,0,0,0,0,0c0.1,0,0.3-0.1,0.4-0.2l4-4.2c0.2-0.2,0.2-0.5,0-0.7
		c-0.2-0.2-0.5-0.2-0.7,0L7,10.5v-10C7,0.2,6.8,0,6.5,0S6,0.2,6,0.5v10L2.9,7.2C2.7,7,2.4,6.9,2.2,7.1C2,7.3,1.9,7.6,2.1,7.8
		L6.1,12.1z"/>
	<path class="st0" d="M12.5,14h-12C0.2,14,0,14.2,0,14.5S0.2,15,0.5,15h12c0.3,0,0.5-0.2,0.5-0.5S12.8,14,12.5,14z"/>
</g>
</svg>
