<svg width="19" height="20" viewBox="0 0 19 20" fill="none" xmlns="http://www.w3.org/2000/svg">
<path fill-rule="evenodd" clip-rule="evenodd" d="M18.0696 0.22823C15.4674 -0.137299 11.8594 -0.199113 8.87729 1.08469C7.37651 1.73078 6.02363 2.72262 5.04875 4.19472C4.3623 5.23129 3.87481 6.48856 3.64635 8H0V9H3.53624C3.51226 9.33668 3.5 9.68464 3.5 10.0442C3.5 10.3722 3.51021 10.6908 3.53022 11H0V12H3.63313C3.85563 13.5535 4.34861 14.844 5.04835 15.904C6.02308 17.3806 7.37645 18.3754 8.8798 19.0129C11.8676 20.28 15.482 20.1526 18.1031 19.6002L17.8969 18.6217C15.3847 19.1511 11.9991 19.2495 9.2702 18.0923C7.91522 17.5177 6.73108 16.6379 5.8829 15.3531C5.29463 14.462 4.8571 13.3595 4.64422 12H17V11H4.53244C4.51103 10.693 4.5 10.3745 4.5 10.0442C4.5 9.68183 4.51327 9.33397 4.53894 9H17V8H4.65872C4.87655 6.68428 5.30752 5.61511 5.8825 4.74686C6.73054 3.4663 7.91516 2.58763 9.27271 2.00319C12.0073 0.825933 15.3992 0.862941 17.9304 1.21851L18.0696 0.22823Z" fill="black"/>
</svg>
