<svg width="31" height="19" viewBox="0 0 31 19" fill="none" xmlns="http://www.w3.org/2000/svg">
<path fill-rule="evenodd" clip-rule="evenodd" d="M16.0197 1H25.5515L22.4785 8.81484C22.4482 8.89181 22.4393 8.9732 22.4507 9.05208C22.5495 9.73709 22.805 10.6682 23.4298 11.4394C24.0741 12.2347 25.0889 12.8289 26.6015 12.8289C28.1275 12.8289 29.1616 12.181 29.8095 11.3731C30.4409 10.5857 30.703 9.65425 30.7554 9.02435C30.762 8.94562 30.7484 8.86537 30.714 8.79044L26.8211 0.304726C26.7574 0.165716 26.6308 0.0636204 26.48 0.0214051V0H4.68666C4.6779 0 4.6692 0.000192343 4.66055 0.000572702C4.64724 -1.62401e-05 4.63383 -0.000153736 4.62036 0.000173127C4.39826 0.00556142 4.20234 0.136043 4.12641 0.32913L0.789636 8.81484C0.759377 8.8918 0.750448 8.97317 0.761861 9.05204C0.860626 9.73704 1.11583 10.6682 1.74061 11.4394C2.38493 12.2347 3.39968 12.8289 4.91225 12.8289C6.43826 12.8289 7.4724 12.181 8.12025 11.3731C8.74559 10.5933 9.00869 9.67223 9.0646 9.04269C9.07509 8.95813 9.06223 8.8712 9.02519 8.79044L5.45125 1H14.9384V18H9.36162V19H21.5965V18H16.0197V1ZM29.5809 9.48572H23.6378C23.7608 9.94719 23.9659 10.4333 24.2952 10.8398C24.7446 11.3945 25.4446 11.8289 26.6015 11.8289C27.7449 11.8289 28.4718 11.3624 28.9409 10.7775C29.269 10.3682 29.4716 9.89745 29.5809 9.48572ZM26.3621 1.86464L23.7585 8.48572H29.3996L26.3621 1.86464ZM1.94864 9.48572C2.07159 9.94719 2.27671 10.4333 2.60603 10.8398C3.05542 11.3945 3.7554 11.8289 4.91225 11.8289C6.05566 11.8289 6.7826 11.3624 7.25165 10.7775C7.57981 10.3682 7.78238 9.89745 7.89165 9.48572H1.94864ZM4.67325 1.86464L2.0697 8.48572H7.71074L4.67325 1.86464Z" fill="black"/>
</svg>
