<svg width="24" height="18" viewBox="0 0 24 18" fill="none" xmlns="http://www.w3.org/2000/svg">
<path fill-rule="evenodd" clip-rule="evenodd" d="M12 5.5C10.067 5.5 8.5 7.067 8.5 9C8.5 10.933 10.067 12.5 12 12.5C13.933 12.5 15.5 10.933 15.5 9C15.5 7.067 13.933 5.5 12 5.5ZM9.5 9C9.5 7.61929 10.6193 6.5 12 6.5C13.3807 6.5 14.5 7.61929 14.5 9C14.5 10.3807 13.3807 11.5 12 11.5C10.6193 11.5 9.5 10.3807 9.5 9Z" fill="black"/>
<path fill-rule="evenodd" clip-rule="evenodd" d="M23.447 8.776C23.5174 8.91676 23.5176 9.08284 23.4472 9.22361L23 9C23.4472 9.22361 23.4467 9.22459 23.4467 9.22459L23.4459 9.22629L23.443 9.23188L23.433 9.25156C23.4243 9.26841 23.4118 9.29262 23.3953 9.3237C23.3624 9.38587 23.314 9.47557 23.2502 9.58888C23.1228 9.81543 22.934 10.1367 22.6856 10.5213C22.1896 11.2893 21.4528 12.3147 20.4898 13.342C18.5728 15.3868 15.6998 17.5 12 17.5C8.30025 17.5 5.42724 15.3868 3.51023 13.342C2.54717 12.3147 1.81041 11.2893 1.31436 10.5213C1.06602 10.1367 0.877193 9.81543 0.749759 9.58888C0.686023 9.47557 0.637588 9.38587 0.604692 9.3237C0.588242 9.29262 0.575673 9.26841 0.567013 9.25156L0.556958 9.23188L0.554135 9.22629L0.553277 9.22459L0.552786 9.22361L1 9C0.552786 8.77639 0.553277 8.77542 0.553277 8.77542L0.554135 8.77371L0.556958 8.76812L0.567013 8.74844C0.575673 8.73159 0.588242 8.70738 0.604692 8.6763C0.637588 8.61413 0.686023 8.52443 0.749759 8.41112C0.877193 8.18457 1.06602 7.86326 1.31436 7.47874C1.81041 6.71066 2.54717 5.6853 3.51023 4.65803C5.42724 2.61322 8.30025 0.5 12 0.5C15.6998 0.5 18.5728 2.61322 20.4898 4.65803C21.4528 5.6853 22.1896 6.71066 22.6856 7.47874C22.934 7.86326 23.1228 8.18457 23.2502 8.41112C23.314 8.52443 23.3624 8.61413 23.3953 8.6763C23.4118 8.70738 23.4243 8.73159 23.433 8.74844L23.443 8.76812L23.4459 8.77371L23.447 8.776ZM1.62133 9.09862C1.60133 9.06305 1.58302 9.03013 1.56643 9C1.58302 8.96987 1.60133 8.93695 1.62133 8.90138C1.73999 8.69043 1.91836 8.38674 2.15439 8.02126C2.62709 7.28934 3.32783 6.3147 4.23977 5.34197C6.07276 3.38678 8.69975 1.5 12 1.5C15.3002 1.5 17.9272 3.38678 19.7602 5.34197C20.6722 6.3147 21.3729 7.28934 21.8456 8.02126C22.0816 8.38674 22.26 8.69043 22.3787 8.90138C22.3987 8.93695 22.417 8.96987 22.4336 9C22.417 9.03012 22.3987 9.06305 22.3787 9.09862C22.26 9.30957 22.0816 9.61326 21.8456 9.97874C21.3729 10.7107 20.6722 11.6853 19.7602 12.658C17.9272 14.6132 15.3002 16.5 12 16.5C8.69975 16.5 6.07276 14.6132 4.23977 12.658C3.32783 11.6853 2.62709 10.7107 2.15439 9.97874C1.91836 9.61326 1.73999 9.30957 1.62133 9.09862ZM23 9C23.4472 8.77639 23.447 8.776 23.447 8.776L23 9Z" fill="black"/>
<path d="M0.552786 9.22361C0.482405 9.08284 0.482405 8.91716 0.552786 8.77639L1 9C0.552786 9.22361 0.552786 9.22361 0.552786 9.22361Z" fill="black"/>
</svg>
