<svg width="40" height="40" viewBox="0 0 40 40" fill="none" xmlns="http://www.w3.org/2000/svg">
<path fill-rule="evenodd" clip-rule="evenodd" d="M7.91217 26.2455C9.34995 24.8077 11.3 24 13.3333 24H26.6667C28.7 24 30.65 24.8077 32.0878 26.2455C33.5256 27.6833 34.3333 29.6333 34.3333 31.6667V35C34.3333 35.5523 33.8856 36 33.3333 36C32.781 36 32.3333 35.5523 32.3333 35V31.6667C32.3333 30.1638 31.7363 28.7224 30.6736 27.6597C29.6109 26.597 28.1695 26 26.6667 26H13.3333C11.8304 26 10.3891 26.597 9.32638 27.6597C8.26368 28.7224 7.66666 30.1638 7.66666 31.6667V35C7.66666 35.5523 7.21894 36 6.66666 36C6.11437 36 5.66666 35.5523 5.66666 35V31.6667C5.66666 29.6333 6.47439 27.6833 7.91217 26.2455Z" fill="black"/>
<path fill-rule="evenodd" clip-rule="evenodd" d="M20 6C16.8704 6 14.3333 8.53705 14.3333 11.6667C14.3333 14.7963 16.8704 17.3333 20 17.3333C23.1296 17.3333 25.6667 14.7963 25.6667 11.6667C25.6667 8.53705 23.1296 6 20 6ZM12.3333 11.6667C12.3333 7.43248 15.7658 4 20 4C24.2342 4 27.6667 7.43248 27.6667 11.6667C27.6667 15.9009 24.2342 19.3333 20 19.3333C15.7658 19.3333 12.3333 15.9009 12.3333 11.6667Z" fill="black"/>
</svg>
