<svg width="82" height="87" viewBox="0 0 82 87" fill="none" xmlns="http://www.w3.org/2000/svg">
<path d="M81.3854 1.0139C69.7549 -0.619872 53.8354 -0.855492 40.799 4.75676C34.2711 7.56707 28.4553 11.8487 24.2743 18.1621C21.112 22.9373 18.8983 28.8547 18.0072 36.1401H0V37.1401H17.8941C17.6808 39.1916 17.5702 41.3486 17.5702 43.6161C17.5702 45.7358 17.6668 47.7602 17.8537 49.6928H0V50.6928H17.9593C18.8171 58.1724 21.0537 64.2413 24.2739 69.1194C28.4548 75.4526 34.271 79.7445 40.8015 82.5138C53.8436 88.0445 69.7694 87.5199 81.4189 85.065L81.2127 84.0865C69.6721 86.5184 53.9751 87.014 41.1919 81.5932C34.8098 78.8867 29.1628 74.71 25.1085 68.5684C22.0022 63.863 19.8177 57.9841 18.9659 50.6928H76.7982V49.6928H18.8584C18.6687 47.7647 18.5702 45.7406 18.5702 43.6161C18.5702 41.3431 18.6829 39.1863 18.8995 37.1401H76.7982V36.1401H19.0147C19.899 29.045 22.0597 23.3174 25.1081 18.7143C29.1622 12.5924 34.8097 8.42391 41.1944 5.67526C53.9833 0.169554 69.6867 0.380369 81.2462 2.00417L81.3854 1.0139Z" fill="black"/>
</svg>
