<svg width="22" height="22" viewBox="0 0 22 22" fill="none" xmlns="http://www.w3.org/2000/svg">
<path fill-rule="evenodd" clip-rule="evenodd" d="M15.7144 6.91789C15.7743 6.73823 15.7275 6.54014 15.5936 6.40623C15.4597 6.27231 15.2616 6.22555 15.0819 6.28544L8.72191 8.40544C8.57261 8.4552 8.45545 8.57236 8.40568 8.72167L6.28568 15.0817C6.22579 15.2613 6.27255 15.4594 6.40647 15.5933C6.54039 15.7272 6.73847 15.774 6.91814 15.7141L13.2781 13.5941C13.4274 13.5444 13.5446 13.4272 13.5944 13.2779L15.7144 6.91789ZM7.55059 14.4492L9.27531 9.27506L14.4495 7.55035L12.7247 12.7245L7.55059 14.4492Z" fill="black"/>
<path fill-rule="evenodd" clip-rule="evenodd" d="M11 0.5C5.20101 0.5 0.5 5.20101 0.5 11C0.5 16.799 5.20101 21.5 11 21.5C16.799 21.5 21.5 16.799 21.5 11C21.5 5.20101 16.799 0.5 11 0.5ZM1.5 11C1.5 5.75329 5.75329 1.5 11 1.5C16.2467 1.5 20.5 5.75329 20.5 11C20.5 16.2467 16.2467 20.5 11 20.5C5.75329 20.5 1.5 16.2467 1.5 11Z" fill="black"/>
</svg>
