<svg width="96" height="96" viewBox="0 0 96 96" fill="none" xmlns="http://www.w3.org/2000/svg">
<path fill-rule="evenodd" clip-rule="evenodd" d="M68.6135 28.017C68.6734 27.8373 68.6266 27.6393 68.4927 27.5053C68.3588 27.3714 68.1607 27.3247 67.981 27.3846L37.771 37.4546C37.6217 37.5043 37.5046 37.6215 37.4548 37.7708L27.3848 67.9808C27.3249 68.1605 27.3717 68.3585 27.5056 68.4925C27.6395 68.6264 27.8376 68.6731 28.0173 68.6133L58.2273 58.5432C58.3766 58.4935 58.4937 58.3763 58.5435 58.227L68.6135 28.017ZM28.6497 67.3483L38.3244 38.3242L67.3486 28.6495L57.6739 57.6736L28.6497 67.3483Z" fill="black"/>
<path fill-rule="evenodd" clip-rule="evenodd" d="M48 0C21.4903 0 0 21.4903 0 48C0 74.5097 21.4903 96 48 96C74.5097 96 96 74.5097 96 48C96 21.4903 74.5097 0 48 0ZM1 48C1 22.0426 22.0426 1 48 1C73.9574 1 95 22.0426 95 48C95 73.9574 73.9574 95 48 95C22.0426 95 1 73.9574 1 48Z" fill="black"/>
</svg>
