<?xml version="1.0" encoding="utf-8"?>
<!-- Generator: Adobe Illustrator 26.0.2, SVG Export Plug-In . SVG Version: 6.00 Build 0)  -->
<svg version="1.2" baseProfile="tiny" id="Calque_1"
	 xmlns="http://www.w3.org/2000/svg" xmlns:xlink="http://www.w3.org/1999/xlink" x="0px" y="0px" width="882px" height="1639.8px"
	 viewBox="0 0 882 1639.8" overflow="visible" xml:space="preserve">
<g>
	<path fill="#FFFFFF" d="M257.6,395.2h181.7c44.5,0,102.6,0,132.6,18.2c32.7,20,59,55.4,59,104.4c0,53.6-28.2,93.6-74.5,111.7v1.8
		c61.8,12.7,95.4,59,95.4,120.8c0,73.6-52.7,143.5-151.7,143.5H257.6V395.2z M323.9,610.5h133.5c75.4,0,106.3-27.2,106.3-79.9
		c0-69-49-79-106.3-79H323.9V610.5z M323.9,839.3h167.1c57.2,0,93.6-35.4,93.6-89.9c0-65.4-52.7-83.6-109-83.6H323.9V839.3z"/>
	<path fill="#FFFFFF" d="M821.7,645.9c0,209.8-170.8,380.6-380.6,380.6S60.6,855.7,60.6,645.9s170.8-380.6,380.6-380.6
		C650.9,265.3,821.7,435.2,821.7,645.9z M441.1,207.2C198.6,207.2,2.4,403.4,2.4,645.9s196.2,438.7,438.7,438.7
		s438.7-196.2,438.7-438.7C878.9,403.4,682.7,207.2,441.1,207.2z"/>
</g>
<g>
	<rect x="3.3" y="1176.3" fill="#FFFFFF" width="874.7" height="57.2"/>
	<path fill="#FFFFFF" d="M850.7,1112.7c0.9,0,1.8,0,2.7,0c0.9,0,1.8,0,2.7-0.9c0.9,0,1.8-0.9,1.8-1.8c0.9-0.9,0.9-1.8,0.9-2.7
		s0-1.8-0.9-2.7c0-0.9-0.9-0.9-1.8-1.8c-0.9,0-0.9-0.9-1.8-0.9c-0.9,0-1.8,0-2.7,0h-6.4v10h5.4V1112.7z M853.5,1099.1
		c3.6,0,6.4,0.9,8.2,1.8c1.8,1.8,2.7,3.6,2.7,6.4c0,2.7-0.9,4.5-2.7,6.4c-1.8,0.9-3.6,1.8-5.4,2.7l9.1,13.6h-5.4l-8.2-12.7h-5.4
		v12.7h-4.5v-30.9H853.5z M831.7,1123.6c0.9,2.7,2.7,5.4,4.5,7.3c1.8,1.8,4.5,3.6,7.3,4.5c2.7,0.9,5.4,1.8,8.2,1.8s6.4-0.9,8.2-1.8
		c2.7-0.9,4.5-2.7,7.3-4.5c1.8-1.8,3.6-4.5,4.5-7.3c0.9-2.7,1.8-5.4,1.8-9.1c0-3.6-0.9-6.4-1.8-9.1c-0.9-2.7-2.7-5.4-4.5-7.3
		c-1.8-1.8-4.5-3.6-7.3-4.5c-2.7-0.9-5.4-1.8-8.2-1.8s-6.4,0.9-8.2,1.8c-2.7,0.9-4.5,2.7-7.3,4.5c-1.8,1.8-3.6,4.5-4.5,7.3
		c-0.9,2.7-1.8,5.4-1.8,9.1C829.8,1118.2,830.8,1120.9,831.7,1123.6 M827.1,1104.6c1.8-2.7,3.6-5.4,5.4-8.2c2.7-2.7,5.4-4.5,8.2-5.4
		c2.7-0.9,6.4-1.8,10-1.8c3.6,0,7.3,0.9,10,1.8c2.7,1.8,5.4,2.7,8.2,5.4c2.7,2.7,4.5,5.4,5.4,8.2c1.8,3.6,1.8,6.4,1.8,10
		s-0.9,7.3-1.8,10c-0.9,3.6-3.6,6.4-5.4,8.2c-2.7,2.7-5.4,4.5-8.2,5.4c-3.6,0.9-6.4,1.8-10,1.8c-3.6,0-7.3-0.9-10-1.8
		c-3.6-0.9-6.4-2.7-8.2-5.4c-2.7-2.7-4.5-5.4-5.4-8.2c-1.8-2.7-1.8-6.4-1.8-10C825.3,1110.9,825.3,1107.3,827.1,1104.6"/>
</g>
<g>
	<g>
		<path fill="#FFFFFF" d="M109.6,1351.6c-1.8-3.6-4.5-6.4-7.3-9.1c-2.7-2.7-6.4-4.5-10.9-5.4c-3.6-1.8-8.2-1.8-11.8-1.8
			c-8.2,0-14.5,1.8-20,4.5c-5.4,2.7-10,7.3-13.6,11.8c-3.6,5.4-5.4,10.9-7.3,17.3c-1.8,6.4-2.7,12.7-2.7,20c0,6.4,0.9,12.7,2.7,19.1
			c1.8,6.4,3.6,11.8,7.3,17.3c3.6,4.5,8.2,9.1,13.6,11.8c5.4,2.7,11.8,4.5,20,4.5c10.9,0,19.1-3.6,24.5-10
			c6.4-6.4,10-14.5,10.9-25.4h33.6c-0.9,10-2.7,19.1-7.3,26.3c-3.6,8.2-8.2,14.5-14.5,20c-6.4,5.4-12.7,10-20.9,12.7
			c-8.2,2.7-17.3,4.5-26.3,4.5c-11.8,0-22.7-1.8-32.7-6.4c-10-4.5-18.2-10-24.5-17.3c-6.4-7.3-11.8-16.3-15.4-26.3
			c-3.6-10-5.4-20.9-5.4-31.8c0-11.8,1.8-22.7,5.4-32.7s8.2-19.1,15.4-26.3c6.4-7.3,14.5-13.6,24.5-17.3c10-4.5,20.9-6.4,32.7-6.4
			c9.1,0,17.3,0.9,24.5,3.6s14.5,6.4,20.9,10.9c6.4,4.5,10.9,10.9,15.4,18.2c3.6,7.3,6.4,15.4,7.3,24.5h-33.6
			C112.3,1358.9,111.4,1355.2,109.6,1351.6z"/>
		<path fill="#FFFFFF" d="M199.5,1439.7c4.5,4.5,11.8,7.3,20,7.3c6.4,0,11.8-1.8,16.3-4.5c4.5-2.7,7.3-6.4,8.2-10h27.2
			c-4.5,13.6-10.9,23.6-20,29.1c-9.1,5.4-20,9.1-32.7,9.1c-9.1,0-17.3-1.8-24.5-4.5c-7.3-2.7-13.6-7.3-18.2-11.8
			c-5.4-5.4-9.1-11.8-11.8-19.1c-2.7-7.3-3.6-15.4-3.6-24.5c0-8.2,1.8-16.3,4.5-23.6c2.7-7.3,6.4-13.6,11.8-19.1s10.9-10,18.2-12.7
			c7.3-2.7,15.4-4.5,23.6-4.5c10,0,18.2,1.8,25.4,5.4c7.3,3.6,12.7,9.1,18.2,15.4c4.5,6.4,8.2,13.6,10,21.8
			c1.8,8.2,2.7,16.3,1.8,25.4h-82.7C192.2,1427.9,195,1435.2,199.5,1439.7z M234.9,1379.8c-3.6-4.5-9.1-6.4-17.3-6.4
			c-5.4,0-9.1,0.9-12.7,2.7c-3.6,1.8-6.4,3.6-8.2,6.4c-1.8,2.7-3.6,5.4-4.5,8.2c-0.9,2.7-0.9,5.4-1.8,7.3h50.9
			C241.3,1389.7,238.6,1384.3,234.9,1379.8z"/>
		<path fill="#FFFFFF" d="M317.6,1353.4v20.9l0,0c1.8-3.6,3.6-6.4,6.4-10c2.7-2.7,5.4-5.4,8.2-7.3c3.6-1.8,6.4-3.6,10-4.5
			c3.6-0.9,7.3-1.8,11.8-1.8c1.8,0,4.5,0,7.3,0.9v29.1c-1.8,0-3.6-0.9-5.4-0.9c-1.8,0-3.6,0-6.4,0c-5.4,0-10.9,0.9-14.5,2.7
			c-3.6,1.8-7.3,4.5-10,8.2s-4.5,7.3-5.4,11.8c-0.9,4.5-1.8,9.1-1.8,14.5v51.8h-30.9v-113.5h30.9V1353.4z"/>
		<path fill="#FFFFFF" d="M444.7,1353.4v20.9H422v56.3c0,5.4,0.9,9.1,2.7,10.9c1.8,1.8,5.4,2.7,10.9,2.7c1.8,0,3.6,0,5.4,0
			c1.8,0,2.7,0,4.5-0.9v24.5c-2.7,0-5.4,0.9-9.1,0.9c-3.6,0-6.4,0-9.1,0c-4.5,0-9.1,0-13.6-0.9c-4.5-0.9-8.2-1.8-11.8-3.6
			c-3.6-1.8-6.4-4.5-8.2-8.2s-2.7-8.2-2.7-13.6v-67.2h-19.1v-20.9h19.1v-34.5H422v34.5h22.7V1353.4z"/>
		<path fill="#FFFFFF" d="M461.1,1335.3v-25.4H492v25.4H461.1z M492,1353.4v113.5h-30.9v-113.5H492z"/>
		<path fill="#FFFFFF" d="M507.4,1374.3v-20.9h19.1v-9.1c0-10,2.7-18.2,9.1-24.5c6.4-6.4,15.4-10,29.1-10c2.7,0,5.4,0,8.2,0
			s5.4,0,8.2,0.9v23.6c-3.6,0-7.3-0.9-11.8-0.9s-7.3,0.9-9.1,2.7s-2.7,5.4-2.7,10v7.3h21.8v20.9h-21.8v92.6h-30.9v-92.6
			L507.4,1374.3L507.4,1374.3z M598.2,1335.3v-25.4h30.9v25.4H598.2z M629.1,1353.4v113.5h-30.9v-113.5H629.1z"/>
		<path fill="#FFFFFF" d="M683.6,1439.7c4.5,4.5,11.8,7.3,20,7.3c6.4,0,11.8-1.8,16.3-4.5c4.5-2.7,7.3-6.4,8.2-10h27.2
			c-4.5,13.6-10.9,23.6-20,29.1c-9.1,5.4-20,9.1-32.7,9.1c-9.1,0-17.3-1.8-24.5-4.5c-7.3-2.7-13.6-7.3-18.2-11.8
			c-5.4-5.4-9.1-11.8-11.8-19.1c-2.7-7.3-3.6-15.4-3.6-24.5c0-8.2,1.8-16.3,4.5-23.6c2.7-7.3,6.4-13.6,11.8-19.1
			c5.4-5.4,10.9-10,18.2-12.7c7.3-2.7,15.4-4.5,23.6-4.5c10,0,18.2,1.8,25.4,5.4c7.3,3.6,12.7,9.1,18.2,15.4
			c4.5,6.4,8.2,13.6,10,21.8c1.8,8.2,2.7,16.3,1.8,25.4h-82.7C676.3,1427.9,679.1,1435.2,683.6,1439.7z M719,1379.8
			c-3.6-4.5-9.1-6.4-17.3-6.4c-5.4,0-9.1,0.9-12.7,2.7c-3.6,1.8-6.4,3.6-8.2,6.4c-1.8,2.7-3.6,5.4-4.5,8.2c-0.9,2.7-0.9,5.4-1.8,7.3
			h50.9C725.4,1389.7,722.7,1384.3,719,1379.8z"/>
		<path fill="#FFFFFF" d="M805.3,1439.7c4.5,4.5,11.8,7.3,20,7.3c6.4,0,11.8-1.8,16.3-4.5c4.5-2.7,7.3-6.4,8.2-10h27.2
			c-4.5,13.6-10.9,23.6-20,29.1c-9.1,5.4-20,9.1-32.7,9.1c-9.1,0-17.3-1.8-24.5-4.5c-7.3-2.7-13.6-7.3-18.2-11.8
			c-5.4-5.4-9.1-11.8-11.8-19.1c-2.7-7.3-3.6-15.4-3.6-24.5c0-8.2,1.8-16.3,4.5-23.6c2.7-7.3,6.4-13.6,11.8-19.1
			c5.4-5.4,10.9-10,18.2-12.7s15.4-4.5,23.6-4.5c10,0,18.2,1.8,25.4,5.4c7.3,3.6,12.7,9.1,18.2,15.4c4.5,6.4,8.2,13.6,10,21.8
			c1.8,8.2,2.7,16.3,1.8,25.4h-82.7C798.1,1427.9,800.8,1435.2,805.3,1439.7z M840.7,1379.8c-3.6-4.5-9.1-6.4-17.3-6.4
			c-5.4,0-9.1,0.9-12.7,2.7c-3.6,1.8-6.4,3.6-8.2,6.4c-1.8,2.7-3.6,5.4-4.5,8.2c-0.9,2.7-0.9,5.4-1.8,7.3h50.9
			C847.1,1389.7,844.4,1384.3,840.7,1379.8z"/>
	</g>
	<polygon fill="#FFFFFF" points="690.9,1337.1 714.5,1301.6 753.6,1301.6 715.4,1337.1 	"/>
</g>
<g>
	<path fill="#FFFFFF" d="M100.5,1v23.6H32.4v28.2h62.7v21.8H32.4v31.8h69.9V130h-99V1H100.5z"/>
	<path fill="#FFFFFF" d="M142.3,36.4v12.7h0.9c3.6-5.4,7.3-9.1,12.7-11.8c5.4-2.7,10.9-3.6,16.3-3.6c7.3,0,12.7,0.9,17.3,2.7
		c4.5,1.8,8.2,4.5,10,8.2c2.7,3.6,4.5,7.3,5.4,11.8c0.9,4.5,1.8,10,1.8,15.4v57.2h-25.4V76.4c0-8.2-0.9-13.6-3.6-17.3
		c-2.7-3.6-6.4-5.4-12.7-5.4c-7.3,0-11.8,1.8-15.4,6.4C146.8,64.6,145,71,145,81v49h-25.4V36.4H142.3z"/>
	<path fill="#FFFFFF" d="M276.7,36.4v17.3h-19.1V100c0,4.5,0.9,7.3,1.8,9.1c1.8,1.8,4.5,1.8,9.1,1.8c1.8,0,2.7,0,4.5,0
		c0.9,0,2.7,0,3.6-0.9v20c-1.8,0-4.5,0.9-7.3,0.9s-5.4,0-8.2,0c-3.6,0-8.2,0-10.9-0.9c-3.6-0.9-6.4-1.8-9.1-2.7
		c-2.7-1.8-4.5-3.6-6.4-6.4c-1.8-2.7-2.7-6.4-2.7-11.8V53.7h-15.4V36.4h15.4V8.3h25.4v28.2C257.6,36.4,276.7,36.4,276.7,36.4z"/>
	<path fill="#FFFFFF" d="M390.2,108.2c3.6,3.6,9.1,5.4,16.3,5.4c5.4,0,10-0.9,13.6-3.6c3.6-2.7,6.4-5.4,7.3-8.2h22.7
		c-3.6,10.9-9.1,19.1-16.3,24.5c-7.3,4.5-16.3,7.3-27.2,7.3c-7.3,0-13.6-0.9-20-3.6c-6.4-2.7-10.9-5.4-15.4-10
		c-4.5-4.5-7.3-9.1-9.1-15.4c-1.8-6.4-3.6-12.7-3.6-20s0.9-13.6,3.6-20c2.7-6.4,5.4-10.9,10-15.4s9.1-8.2,15.4-10
		c5.4-2.7,12.7-3.6,19.1-3.6c8.2,0,14.5,1.8,20.9,4.5c6.4,2.7,10.9,7.3,14.5,12.7c3.6,5.4,6.4,10.9,8.2,18.2
		c1.8,6.4,2.7,13.6,1.8,20.9h-67.2C383.9,98.2,386.6,104.6,390.2,108.2z M419.3,58.2c-2.7-3.6-8.2-5.4-13.6-5.4
		c-4.5,0-7.3,0.9-10,1.8c-2.7,1.8-4.5,2.7-6.4,5.4c-1.8,1.8-2.7,4.5-3.6,6.4c-0.9,2.7-0.9,4.5-0.9,6.4h41.8
		C424.8,67.3,422,61.9,419.3,58.2z"/>
	<path fill="#FFFFFF" d="M319.4,36.4v17.3l0,0c0.9-2.7,2.7-5.4,4.5-8.2s4.5-4.5,7.3-6.4s5.4-2.7,8.2-3.6c2.7-0.9,6.4-1.8,9.1-1.8
		c1.8,0,3.6,0,5.4,0.9v23.6c-0.9,0-2.7,0-4.5-0.9c-1.8,0-3.6,0-4.5,0c-4.5,0-9.1,0.9-11.8,2.7c-3.6,1.8-5.4,3.6-8.2,6.4
		c-1.8,2.7-3.6,5.4-4.5,9.1c-0.9,3.6-0.9,7.3-0.9,11.8v41.8H294V36.4H319.4z"/>
	<path fill="#FFFFFF" d="M488.3,36.4v11.8l0,0c2.7-5.4,7.3-9.1,11.8-10.9c4.5-2.7,10-3.6,16.3-3.6c7.3,0,13.6,1.8,19.1,4.5
		s10,6.4,13.6,10.9s6.4,10,8.2,16.3c1.8,6.4,2.7,12.7,2.7,19.1c0,6.4-0.9,12.7-2.7,18.2c-1.8,5.4-4.5,10.9-7.3,15.4
		c-3.6,4.5-8.2,8.2-12.7,10.9c-5.4,2.7-10.9,3.6-18.2,3.6c-5.4,0-10.9-0.9-16.3-3.6c-4.5-2.7-9.1-5.4-11.8-10l0,0v44.5h-27.2V36.4
		H488.3z M521,110.9c2.7-1.8,5.4-3.6,7.3-6.4c1.8-2.7,2.7-5.4,3.6-9.1c0.9-3.6,0.9-7.3,0.9-10.9c0-3.6,0-7.3-0.9-10.9
		c-0.9-3.6-1.8-7.3-3.6-10c-1.8-2.7-4.5-5.4-7.3-7.3c-2.7-1.8-6.4-2.7-10-2.7c-4.5,0-8.2,0.9-10.9,2.7c-2.7,1.8-5.4,3.6-7.3,6.4
		c-1.8,2.7-2.7,6.4-3.6,10c-0.9,3.6-0.9,7.3-0.9,10.9c0,3.6,0,7.3,0.9,10.9c0.9,3.6,1.8,6.4,3.6,9.1c1.8,2.7,3.6,4.5,7.3,6.4
		c2.7,1.8,6.4,2.7,10.9,2.7C514.7,113.6,518.3,112.7,521,110.9z"/>
	<path fill="#FFFFFF" d="M599.1,36.4v17.3l0,0c0.9-2.7,2.7-5.4,4.5-8.2c1.8-2.7,4.5-4.5,7.3-6.4s5.4-2.7,8.2-3.6s6.4-1.8,9.1-1.8
		c1.8,0,3.6,0,5.4,0.9v23.6c-0.9,0-2.7,0-4.5-0.9c-1.8,0-3.6,0-4.5,0c-4.5,0-9.1,0.9-11.8,2.7c-3.6,1.8-5.4,3.6-8.2,6.4
		c-1.8,2.7-3.6,5.4-4.5,9.1c0,4.5,0,8.2,0,12.7V130h-25.4V36.4H599.1z"/>
	<path fill="#FFFFFF" d="M645.5,21.9V1h25.4v20.9H645.5z M670.9,36.4V130h-25.4V36.4H670.9z"/>
	<path fill="#FFFFFF" d="M712.7,107.3c0.9,1.8,2.7,3.6,4.5,4.5s3.6,1.8,6.4,2.7c2.7,0.9,4.5,0.9,7.3,0.9c1.8,0,3.6,0,5.4-0.9
		c1.8,0,3.6-0.9,5.4-1.8c1.8-0.9,2.7-1.8,3.6-3.6s1.8-3.6,1.8-5.4c0-3.6-2.7-6.4-7.3-9.1c-5.4-1.8-12.7-3.6-21.8-5.4
		c-3.6-0.9-7.3-1.8-10.9-2.7c-3.6-0.9-6.4-2.7-9.1-4.5s-5.4-4.5-6.4-7.3c-1.8-2.7-2.7-6.4-2.7-10c0-6.4,0.9-10.9,3.6-14.5
		c2.7-3.6,5.4-7.3,9.1-9.1c3.6-1.8,8.2-3.6,12.7-4.5c4.5-0.9,10-0.9,14.5-0.9c5.4,0,10,0.9,14.5,1.8c4.5,0.9,9.1,2.7,12.7,4.5
		c3.6,2.7,7.3,5.4,9.1,9.1c2.7,3.6,3.6,8.2,4.5,14.5h-24.5c0-4.5-1.8-8.2-5.4-10s-7.3-2.7-11.8-2.7c-1.8,0-2.7,0-4.5,0
		s-3.6,0.9-4.5,0.9c-1.8,0.9-2.7,1.8-3.6,2.7c-0.9,0.9-1.8,2.7-1.8,4.5c0,2.7,0.9,4.5,2.7,5.4c1.8,1.8,3.6,2.7,6.4,3.6
		c2.7,0.9,5.4,1.8,9.1,2.7c3.6,0.9,7.3,1.8,10.9,2.7c3.6,0.9,7.3,1.8,10.9,2.7c3.6,0.9,6.4,2.7,9.1,4.5c2.7,1.8,5.4,4.5,6.4,7.3
		c1.8,2.7,2.7,6.4,2.7,10.9c0,6.4-0.9,10.9-3.6,15.4c-2.7,4.5-5.4,7.3-10,10c-3.6,2.7-8.2,4.5-13.6,5.4c-5.4,0.9-10,1.8-15.4,1.8
		s-10.9-0.9-16.3-1.8c-5.4-0.9-10-2.7-13.6-5.4c-3.6-2.7-7.3-5.4-10-10c-2.7-4.5-3.6-9.1-4.5-15.4H709
		C711.8,102.7,711.8,105.5,712.7,107.3z"/>
	<path fill="#FFFFFF" d="M816.2,108.2c3.6,3.6,9.1,5.4,16.3,5.4c5.4,0,10-0.9,13.6-3.6c3.6-2.7,6.4-5.4,7.3-8.2h22.7
		c-3.6,10.9-9.1,19.1-16.3,24.5c-7.3,4.5-16.3,7.3-27.2,7.3c-7.3,0-13.6-0.9-20-3.6c-6.4-2.7-10.9-5.4-15.4-10
		c-4.5-4.5-7.3-9.1-9.1-15.4c-1.8-6.4-3.6-12.7-3.6-20s0.9-13.6,3.6-20c2.7-6.4,5.4-10.9,10-15.4s9.1-8.2,15.4-10
		c5.4-2.7,12.7-3.6,19.1-3.6c8.2,0,14.5,1.8,20.9,4.5c6.4,2.7,10.9,7.3,14.5,12.7c3.6,5.4,6.4,10.9,8.2,18.2
		c1.8,6.4,2.7,13.6,1.8,20.9h-67.2C809.9,98.2,812.6,104.6,816.2,108.2z M845.3,58.2c-2.7-3.6-8.2-5.4-13.6-5.4
		c-4.5,0-7.3,0.9-10,1.8c-2.7,1.8-4.5,2.7-6.4,5.4c-1.8,1.8-2.7,4.5-3.6,6.4c-0.9,2.7-0.9,4.5-0.9,6.4h41.8
		C850.7,67.3,848,61.9,845.3,58.2z"/>
</g>
<g>
	<path fill="#FFFFFF" d="M71.5,1558.7h-49v19.1h45.4v16.3H22.4v23.6h51.8v16.3H3.3v-92.6h68.1V1558.7z"/>
	<path fill="#FFFFFF" d="M147.7,1542.3h18.2v92.6h-20l-38.1-66.3l0,0v66.3H89.6v-92.6h20l37.2,64.5l0,0v-64.5H147.7z"/>
	<path fill="#FFFFFF" d="M282.2,1573.2c-1.8-5.4-4.5-16.3-20.9-16.3c-9.1,0-22.7,6.4-22.7,32.7c0,16.3,6.4,31.8,22.7,31.8
		c10.9,0,18.2-6.4,20.9-17.3h19.1c-3.6,20-17.3,34.5-40,34.5c-24.5,0-42.7-16.3-42.7-49c0-32.7,19.1-49,42.7-49
		c28.2,0,39.1,19.1,40,32.7L282.2,1573.2L282.2,1573.2z"/>
	<path fill="#FFFFFF" d="M317.6,1542.3h47.2c24.5,0,29.1,18.2,29.1,26.3c0,10-5.4,19.1-14.5,21.8c7.3,3.6,11.8,6.4,11.8,23.6
		c0,13.6,0,17.3,4.5,18.2v2.7h-21.8c-0.9-4.5-1.8-9.1-1.8-19.1c0-12.7-0.9-17.3-15.4-17.3h-20v36.3h-19.1V1542.3z M359.4,1583.2
		c10,0,15.4-3.6,15.4-12.7c0-4.5-1.8-11.8-13.6-11.8h-24.5v24.5H359.4z"/>
	<path fill="#FFFFFF" d="M481.1,1558.7h-49v19.1h45.4v16.3H432v23.6h51.8v16.3H413v-92.6h68.1
		C481.1,1541.4,481.1,1558.7,481.1,1558.7z"/>
	<path fill="#FFFFFF" d="M513.8,1635.9h-20l32.7-92.6h22.7l32.7,92.6H561l-6.4-19.1h-34.5L513.8,1635.9z M524.7,1600.5h23.6
		l-11.8-36.3l0,0L524.7,1600.5z"/>
	<path fill="#FFFFFF" d="M622.8,1635.9h-19.1v-77.2h-28.2v-16.3h75.4v16.3h-28.2C622.8,1558.7,622.8,1635.9,622.8,1635.9z"/>
	<path fill="#FFFFFF" d="M681.8,1635.9h-19.1v-92.6h19.1V1635.9z"/>
	<path fill="#FFFFFF" d="M741.7,1540.5c12.7,0,44.5,5.4,44.5,49c0,43.6-32.7,49-44.5,49c-12.7,0-44.5-5.4-44.5-49
		S729,1540.5,741.7,1540.5z M741.7,1621.4c10.9,0,25.4-6.4,25.4-32.7c0-26.3-14.5-32.7-25.4-32.7c-10.9,0-25.4,6.4-25.4,32.7
		C716.3,1615,730.8,1621.4,741.7,1621.4z"/>
	<path fill="#FFFFFF" d="M859.8,1542.3H878v92.6h-19.1l-38.1-66.3l0,0v66.3h-18.2v-92.6h20l37.2,64.5l0,0V1542.3z"/>
</g>
</svg>
